<svg width="243" height="207" viewBox="0 0 243 207" fill="none" xmlns="http://www.w3.org/2000/svg">
<g id="Group">
<g id="Group_2">
<g id="Group_3">
<path id="Vector" d="M75.3521 117.836L91.6016 203.685L155.273 204.68L157.595 141.038L75.3521 117.836Z" fill="#384D64"/>
</g>
<g id="Group_4">
<g id="Group_5">
<path id="Vector_2" d="M111.831 39.7758C111.831 39.7758 99.7263 24.6942 114.649 7.95517C129.572 -8.78383 163.73 1.4916 159.087 30.992L134.878 43.9191L111.831 39.7758Z" fill="#010004"/>
</g>
<g id="Group_6">
<path id="Vector_3" d="M135.708 49.3883L121.613 31.6549L98.7314 37.2898L107.188 59.8295L135.708 49.3883Z" fill="#EEC4A9"/>
</g>
<g id="Group_7">
<path id="Vector_4" d="M123.272 54.0288L120.619 38.6157L114.981 57.012L123.272 54.0288Z" fill="#E4B08F"/>
</g>
<g id="Group_8">
<path id="Vector_5" d="M159.087 30.992C159.087 30.992 155.273 41.4331 148.807 52.04C142.34 62.6469 117.468 67.4532 118.629 33.8094L138.858 18.3963C138.858 18.3963 155.937 17.2362 159.087 30.992Z" fill="#EEC4A9"/>
</g>
<g id="Group_9">
<path id="Vector_6" d="M125.759 25.8543C125.759 25.8543 123.769 31.3235 127.583 32.1521C131.396 32.9808 140.184 23.3683 140.184 23.3683C140.184 23.3683 148.807 30.3291 159.75 32.4836C170.694 34.6381 169.367 14.4187 165.056 8.94956C153.284 -5.63491 135.542 8.94956 135.542 8.94956L125.759 25.8543Z" fill="#010004"/>
</g>
<g id="Group_10">
<path id="Vector_7" d="M122.443 34.8038C126.38 34.8038 129.573 31.6132 129.573 27.6773C129.573 23.7415 126.38 20.5508 122.443 20.5508C118.505 20.5508 115.313 23.7415 115.313 27.6773C115.313 31.6132 118.505 34.8038 122.443 34.8038Z" fill="#EEC4A9"/>
</g>
</g>
<g id="Group_11">
<path id="Vector_8" d="M111.002 64.6357L104.369 28.6717L93.2598 32.4836C93.2598 32.4836 27.1008 -5.63491 0.239258 181.809H91.4358L111.002 64.6357Z" fill="#F6F6F6"/>
</g>
<g id="Group_12">
<g id="Group_13">
<g id="Group_14">
<path id="Vector_9" d="M191.255 177.002L123.272 93.9704L103.706 129.603L164.559 189.764L191.255 177.002Z" fill="#EEC4A9"/>
</g>
<g id="Group_15">
<path id="Vector_10" d="M60.7605 105.406L93.2596 62.1497L123.272 93.9704L102.048 142.199L60.7605 105.406Z" fill="#EEC4A9"/>
</g>
</g>
<g id="Group_16">
<g id="Group_17">
<path id="Vector_11" d="M12.3435 181.974V203.851H93.5914L109.178 142.199L64.2426 95.462C64.2426 95.462 47.3298 102.92 47.3298 110.046C47.3298 117.173 48.4905 129.603 41.1948 129.603C33.8991 129.603 30.417 138.387 30.417 147.833C30.417 157.28 28.4273 161.258 23.9503 161.258C19.4734 161.258 12.3435 167.39 12.3435 181.974Z" fill="#4A6889"/>
</g>
<g id="Group_18">
<path id="Vector_12" d="M53.4489 101.435L52.314 102.644L106.104 153.126L107.239 151.918L53.4489 101.435Z" fill="#C9C9C9"/>
</g>
<g id="Group_19">
<path id="Vector_13" d="M64.9973 113.098L26.0417 202.794L27.5627 203.454L66.5183 113.758L64.9973 113.098Z" fill="#C9C9C9"/>
</g>
</g>
<g id="Group_20">
<g id="Group_21">
<path id="Vector_14" d="M187.938 171.367C187.938 171.367 233.703 191.255 241.496 199.211H150.133L152.289 177.831C152.289 177.831 157.761 171.367 176.995 177.168C183.959 179.323 187.938 171.367 187.938 171.367Z" fill="#EBE6C5"/>
</g>
<g id="Group_22">
<path id="Vector_15" d="M150.133 199.211H241.496L242.822 207H150.133V199.211Z" fill="#EBE6C5"/>
</g>
<g id="Group_23">
<path id="Vector_16" d="M241.496 198.382H150.133V200.039H241.496V198.382Z" fill="#C0B992"/>
</g>
<g id="Group_24">
<path id="Vector_17" d="M209.328 190.095L211.152 182.306L201.535 186.449L203.027 177.665L193.908 180.317L193.576 178.825L205.017 175.511L203.525 183.797L213.308 179.488L211.484 187.609L219.94 184.46L220.437 185.952L209.328 190.095Z" fill="#C0B992"/>
</g>
</g>
</g>
<g id="Group_25">
<path id="Vector_18" d="M141.014 115.681L73.1965 88.9984L82.6478 76.237L141.014 115.681Z" fill="#E4B08F"/>
</g>
<g id="Group_26">
<g id="Group_27">
<path id="Vector_19" d="M205.68 115.35L206.841 117.504C206.841 117.504 208.167 122.476 204.52 123.471C204.52 123.471 207.007 125.791 202.364 128.443C202.364 128.443 204.52 130.1 199.877 132.752C199.877 132.752 192.747 132.752 191.586 132.752C190.426 132.752 189.265 129.769 189.265 129.769L205.68 115.35Z" fill="#EEC4A9"/>
</g>
<g id="Group_28">
<path id="Vector_20" d="M205.68 115.35L206.841 117.504C206.841 117.504 208.167 122.476 204.52 123.471C204.52 123.471 207.007 125.791 202.364 128.443C202.364 128.443 204.52 130.1 199.877 132.752C199.877 132.752 192.747 132.752 191.586 132.752C190.426 132.752 189.265 129.769 189.265 129.769L205.68 115.35Z" fill="#EEC4A9"/>
</g>
<g id="Group_29">
<g id="Group_30">
<path id="Vector_21" d="M219.443 104.246L205.68 78.5572L157.595 116.51L175.171 142.199L219.443 104.246Z" fill="#5C7644"/>
</g>
<g id="Group_31">
<path id="Vector_22" d="M219.443 104.246L202.198 77.8943L154.113 116.013L175.171 142.199L219.443 104.246Z" fill="#F7F5F4"/>
</g>
<g id="Group_32">
<path id="Vector_23" d="M219.443 104.246L204.354 85.3523L156.268 123.471L175.171 142.199L219.443 104.246Z" fill="#EDE9E6"/>
</g>
<g id="Group_33">
<path id="Vector_24" d="M219.443 104.246L204.685 88.9984L156.6 126.951L175.171 142.199L219.443 104.246Z" fill="#5C7644"/>
</g>
<g id="Group_34">
<path id="Vector_25" d="M215.318 100.537L172.485 139.179L173.596 140.409L216.429 101.767L215.318 100.537Z" fill="#404E32"/>
</g>
</g>
<g id="Group_35">
<path id="Vector_26" d="M154.279 100.102C154.279 100.102 167.544 97.4508 170.86 97.4508C174.176 97.4508 181.306 97.948 181.306 104.412C181.306 104.412 191.918 109.881 191.255 113.858C190.426 117.836 183.13 115.018 183.13 115.018C183.13 115.018 190.923 119.99 189.431 122.808C187.938 125.625 183.793 123.305 183.793 123.305C183.793 123.305 182.632 127.117 178.985 127.117C178.985 127.117 177.492 129.769 174.508 129.769C171.523 129.769 149.802 120.653 145.656 118.333C141.511 115.847 154.279 100.102 154.279 100.102Z" fill="#EEC4A9"/>
</g>
<g id="Group_36">
<path id="Vector_27" d="M97.0735 66.7902C97.0735 66.7902 104.038 46.4051 91.4359 39.2786C78.8342 32.1521 56.7812 40.9359 52.3043 61.3211C50.1487 70.9335 75.6838 87.0096 85.6325 81.209C95.5812 75.4083 97.0735 66.7902 97.0735 66.7902Z" fill="#EBEAE7"/>
</g>
<g id="Group_37">
<path id="Vector_28" d="M80.658 83.032C74.6888 83.032 67.0615 79.7174 61.258 75.4083C54.4597 70.4363 50.9777 64.9672 51.8068 60.9896C53.9623 50.8799 60.7606 42.5933 70.2119 38.45C77.8392 34.9696 86.1298 35.1353 92.0991 38.45C96.0786 40.7702 97.5709 47.731 97.5709 51.7086H95.9127C95.9127 47.3995 94.0888 41.5989 91.1042 39.9416C85.6324 36.7926 78.005 36.7926 70.7093 39.9416C61.7555 43.9191 55.2888 51.7086 53.1333 61.4868C52.3042 64.9672 55.7862 69.7734 61.9213 74.4139C69.3828 79.8831 79.829 83.695 85.135 80.546L85.964 81.8719C84.4717 82.7006 82.6478 83.032 80.658 83.032Z" fill="#E1E0DC"/>
</g>
<g id="Group_38">
<path id="Vector_29" d="M154.279 100.102C154.279 100.102 101.716 62.1497 89.1144 52.703C82.3161 47.8967 63.0819 54.526 62.5845 62.1497C61.0922 86.8439 145.49 118.167 145.49 118.167L154.279 100.102Z" fill="#EEC4A9"/>
</g>
</g>
</g>
</g>
</svg>
