<svg width="220" height="203" viewBox="0 0 220 203" fill="none" xmlns="http://www.w3.org/2000/svg">
<path d="M29.6416 188.556L43.2789 143.533L56.6908 157.977L43.7297 191.377L29.6416 188.556Z" fill="#FFC9A7"/>
<path d="M24.9077 124.463L49.1393 84.179L58.7192 101.444L37.8688 130.669L24.9077 124.463Z" fill="#FFC9A7"/>
<path d="M26.5984 121.755C26.5984 121.755 4.50824 131.346 0.67627 135.183H44.8566L42.7152 124.802C42.7152 124.802 41.25 121.642 31.8955 124.463C28.4017 125.591 26.5984 121.755 26.5984 121.755Z" fill="#585D5D"/>
<path d="M44.8566 135.183H0.67623L0 139.019H44.8566V135.183Z" fill="#585D5D"/>
<path d="M44.8566 134.619H0.67627V135.747H44.8566V134.619Z" fill="#F9F7F6"/>
<path d="M16.455 131.121L10.707 128.977L11.1579 127.848L14.8771 129.315L13.9755 125.366L18.7091 127.51L18.0329 123.447L23.8935 125.14L23.5554 126.268L19.498 125.027L20.1742 129.315L15.5533 127.284L16.455 131.121Z" fill="#F9F7F6"/>
<path d="M38.9961 94.786L62.2133 51.5681L105.154 84.5175L112.592 88.8055L105.154 124.35L73.033 95.1245C73.033 95.1245 73.5965 100.09 70.6662 100.09C65.4818 100.09 68.8629 108.553 63.4531 110.471L38.9961 94.786Z" fill="#7B8A9C"/>
<path d="M112.705 88.8055L96.9264 107.424C96.9264 107.424 69.4264 107.424 64.0165 107.424C58.6067 107.424 53.6477 116.677 53.6477 118.934C53.6477 121.078 45.4202 126.494 50.4919 139.697H132.09L142.346 105.957L112.705 88.8055Z" fill="#99AABB"/>
<path d="M89.375 33.2879L57.4795 49.4241L67.2848 61.9494L93.207 56.3074L105.266 84.4047L142.459 105.957C142.459 105.957 163.084 40.2841 139.641 33.1751C116.199 26.0662 108.76 24.1479 108.76 24.1479L89.375 33.2879Z" fill="#3B3A3A"/>
<path d="M89.375 29.1128C89.375 29.1128 92.1926 35.3191 97.2643 40.5097C104.252 47.7315 120.256 43.2179 111.014 20.8755L100.082 19.8599C100.082 19.8599 89.9385 20.7626 89.375 29.1128Z" fill="#FFC9A7"/>
<path d="M110 26.4047C112.615 26.4047 114.734 24.2828 114.734 21.6654C114.734 19.0479 112.615 16.9261 110 16.9261C107.386 16.9261 105.267 19.0479 105.267 21.6654C105.267 24.2828 107.386 26.4047 110 26.4047Z" fill="#FFC9A7"/>
<path d="M110 16.9261C110 16.9261 113.832 22.0039 111.916 24.2607C111.916 24.2607 110 23.8093 106.731 21.7782C106.731 21.7782 106.844 25.7276 103.576 25.7276C100.307 25.7276 103.35 32.0467 98.0531 32.0467C92.8687 32.0467 94.6719 39.1556 86.6699 35.6576C78.7806 32.0467 84.6412 27.7588 84.6412 25.5019C84.6412 23.2451 75.6248 16.9261 83.965 8.68872C92.3051 0.338522 94.7846 -0.677042 98.7293 0.789884C102.674 2.25681 107.069 -1.01556 109.887 8.57588C112.817 18.1673 112.254 13.9922 113.381 18.7315C113.494 18.393 111.916 16.5876 110 16.9261Z" fill="#010004"/>
<path d="M69.5388 49.3113L87.008 42.7665C87.008 42.7665 104.59 41.8638 108.535 43.5564C112.479 45.249 107.633 45.1362 105.604 45.3619C105.604 45.3619 111.014 45.9261 110.338 46.8288C109.662 47.7315 99.4056 47.2802 99.4056 47.2802C99.4056 47.2802 104.252 48.7471 106.055 50.214C107.858 51.6809 106.281 52.1323 104.365 51.3424C102.449 50.5525 97.715 51.0039 97.715 51.0039C97.715 51.0039 101.66 51.7938 102.674 53.1479C103.688 54.5019 101.547 54.1634 99.9691 53.4864C98.3912 52.8093 89.7129 54.7276 85.5429 52.9222L67.2847 63.9805L69.5388 49.3113Z" fill="#FFC9A7"/>
<path d="M72.3564 45.4747L69.088 65.786C69.088 65.786 61.3114 69.7354 59.9589 67.4786C58.6065 65.2218 51.1679 70.5253 48.1249 65.2218C45.0819 59.9183 49.9282 52.2451 53.422 48.7471L72.3564 45.4747Z" fill="#3B3A3A"/>
<path d="M72.4693 107.424H49.9283L33.8115 162.49H63.6783C63.6783 162.49 72.1312 152.222 68.2992 150.078C64.4673 147.821 75.8505 140.035 72.4693 136.65C69.0882 133.265 67.623 130.782 67.623 130.782L72.4693 107.424Z" fill="#99A9BB"/>
<path d="M55.0001 162.716L53.873 162.265L67.7358 125.253H122.736L136.26 102.685L137.275 103.249L123.412 126.381H68.412L55.0001 162.716Z" fill="#6D7987"/>
<path d="M29.0779 185.623C29.0779 185.623 6.98773 195.214 3.15576 199.051H47.3361L46.3217 188.669C46.3217 188.669 43.7295 185.51 34.375 188.331C30.9939 189.459 29.0779 185.623 29.0779 185.623Z" fill="#585D5D"/>
<path d="M47.336 199.163H3.15572L2.47949 203H47.336V199.163Z" fill="#585D5D"/>
<path d="M47.3361 198.599H3.15576V199.728H47.3361V198.599Z" fill="#F9F7F6"/>
<path d="M18.9346 194.988L13.2993 192.844L13.6374 191.829L17.3567 193.183L16.4551 189.346L21.3014 191.377L20.6251 187.428L26.3731 189.121L26.1477 190.136L21.9776 189.008L22.7665 193.296L18.1456 191.265L18.9346 194.988Z" fill="#F9F7F6"/>
<path d="M128.822 135.973H123.074L138.852 147.934L169.395 148.724L200.389 141.163L195.318 138.907L128.822 135.973Z" fill="#5C7644"/>
<path d="M196.783 136.424V140.035L168.156 146.805L139.078 145.564L138.853 143.195L165 137.214L196.783 136.424Z" fill="#F9F7F6"/>
<path d="M166.691 144.549C166.691 144.549 167.818 138.455 177.51 137.891C187.203 137.327 196.783 136.311 196.783 136.311L178.412 128.751L153.729 129.767C153.729 129.992 159.928 141.615 166.691 144.549Z" fill="#E2DBD6"/>
<path d="M150.123 133.716L125.779 132.362L138.853 143.195L166.691 144.549L150.123 133.716Z" fill="#E2DBD6"/>
<path d="M125.779 132.362L124.877 135.296L139.078 145.564L138.852 143.195L125.779 132.362Z" fill="#F9F7F6"/>
<path d="M171.086 93.7704L170.41 111.938L172.213 119.724C172.213 119.724 170.973 128.412 170.973 129.879C170.973 131.346 168.719 129.202 169.283 124.125C169.283 124.125 168.494 125.14 167.479 125.14C166.465 125.14 166.465 125.14 166.465 125.14C166.465 125.14 166.24 127.284 163.084 125.479L162.746 109.794L159.703 94.2218L171.086 93.7704Z" fill="#FFC9A7"/>
<path d="M167.029 115.436L162.971 120.626V114.307L167.029 115.436Z" fill="#FFC9A7"/>
<path d="M156.885 116.451L164.887 121.304C164.887 121.304 158.689 126.494 157.9 129.879C157.111 133.377 161.844 141.728 166.691 144.549C166.691 144.549 160.041 141.615 147.982 133.829C147.982 133.829 139.867 128.977 145.39 122.206C149.334 117.467 156.885 116.451 156.885 116.451Z" fill="#F9F7F6"/>
<path d="M162.746 109.004C162.746 109.004 159.928 110.696 160.266 115.661C160.266 115.661 156.772 118.595 157.449 119.385C158.125 120.175 161.393 121.981 163.422 116.451L167.029 115.323L162.746 109.004Z" fill="#FFC9A7"/>
<path d="M158.576 98.8483L174.016 93.6576C174.016 93.6576 177.398 82.035 173.002 81.2451C170.072 80.6809 172.889 72.4436 167.818 71.6537C164.775 71.2023 153.504 37.5759 142.459 34.3035L145.277 73.9105L158.576 98.8483Z" fill="#3B3A3A"/>
</svg>
