<svg width="330" height="142" viewBox="0 0 330 142" fill="none" xmlns="http://www.w3.org/2000/svg">
<g clip-path="url(#clip0_246_9364)">
<path d="M102.778 117.685C67.7778 117.685 27.3612 117.685 27.3612 117.685C27.3612 117.685 12.3612 110.182 8.3334 96.8434C4.16673 83.3659 8.61118 45.2955 23.4723 26.955C38.4723 8.75342 69.7223 -5.83562 90.9723 8.75342C106.111 19.1742 142.5 17.6458 142.5 81.4207C142.361 81.4207 138.611 117.685 102.778 117.685Z" fill="#B5938E"/>
<path d="M38.3335 104.207C42.0835 100.456 29.1668 96.5656 24.5835 93.9256C20.139 91.2857 16.5279 80.0313 20.139 80.0313C23.7501 80.0313 30.8335 73.9178 30.8335 73.9178C30.8335 73.9178 21.389 75.4462 15.0001 71.8337C8.61124 68.2211 16.2501 39.3209 16.389 38.6262C7.36124 58.0783 5.00013 85.8669 8.33346 96.8434C12.3612 110.321 27.3612 117.685 27.3612 117.685C27.3612 117.685 35.6946 117.685 48.0557 117.685C43.1946 116.712 34.5835 107.959 38.3335 104.207Z" fill="#AC8580"/>
<path d="M66.8056 34.0411C66.8056 34.0411 70.6945 25.9824 67.9167 21.1194C65.139 16.2564 55.4167 17.5069 55.4167 17.5069C55.4167 17.5069 75.2779 9.72603 73.4723 26.816L66.8056 34.0411Z" fill="#AC8580"/>
<path d="M95.6946 14.1722C95.6946 14.1722 100 17.7847 99.4446 21.953C99.4446 21.8141 105.695 18.7573 95.6946 14.1722Z" fill="#AC8580"/>
<path d="M65.2779 52.7984C65.2779 52.7984 60.5556 42.0998 50.6945 43.6282C40.9723 45.1566 36.6667 48.6301 36.6667 48.6301C36.6667 48.6301 58.3334 43.4892 64.4445 58.2172L65.2779 52.7984Z" fill="#AC8580"/>
<path d="M82.3613 92.8141C82.3613 92.8141 86.9446 103.235 70.8335 105.736C70.8335 105.736 81.5279 96.2877 76.9446 88.3679C76.8057 88.3679 82.3613 84.3386 82.3613 92.8141Z" fill="#AC8580"/>
<path d="M85.139 105.736C89.3057 109.904 96.9446 117.685 102.778 117.685C108.611 117.685 118.889 117.685 118.889 117.685L88.889 88.7847L79.3057 89.4795C79.3057 89.4795 79.4446 100.039 85.139 105.736Z" fill="#AC8580"/>
<path d="M66.5279 73.501C66.5279 73.501 72.2223 78.6419 64.8612 80.5871C57.5001 82.5323 51.8057 79.0587 51.8057 79.0587C51.8057 79.0587 64.4446 79.4755 66.5279 73.501Z" fill="#AC8580"/>
<path d="M106.389 103.791C98.7501 102.401 89.4445 98.2329 81.5279 92.2583C73.6112 86.2838 67.0834 78.5029 65.139 69.8885C60.9723 52.7984 60.9723 31.6791 77.0834 25.0098C93.1945 18.3405 135.417 35.4305 135.417 56.272C135.278 76.9746 130.556 108.098 106.389 103.791Z" fill="#AC8580"/>
<path d="M175.245 34.6951L163.517 41.3287L182.112 74.2272L193.839 67.5935L175.245 34.6951Z" fill="#F4B17F"/>
<path d="M290.139 92.2583L271.667 97.2603L252.639 54.7436L270.972 49.7417L290.139 92.2583Z" fill="#F4B17F"/>
<path d="M288.75 89.0626C288.75 89.0626 321.389 93.6477 327.778 97.3992L272.917 112.544L269.722 94.3425C269.722 94.3425 275.694 91.9804 282.222 92.8141C287.083 93.3699 288.75 89.0626 288.75 89.0626Z" fill="#B7673F"/>
<path d="M272.917 112.544L327.778 97.3992L330 102.262L274.305 117.546L272.917 112.544Z" fill="#B7673F"/>
<path d="M272.917 113.239C272.639 113.239 272.361 112.961 272.222 112.683C272.083 112.266 272.361 111.849 272.778 111.71L327.639 96.5656C328.055 96.4266 328.472 96.7045 328.611 97.1213C328.75 97.5382 328.472 97.955 328.055 98.0939L273.194 113.239C273.055 113.239 272.917 113.239 272.917 113.239Z" fill="#D79A3F"/>
<path d="M306.111 96.9824C305.972 96.9824 305.833 96.9824 305.833 96.8434C305.555 96.7045 305.417 96.4266 305.417 96.1487L305.278 92.2583L300.972 95.7319C300.694 95.8708 300.417 96.0098 300.139 95.8708C299.861 95.7319 299.722 95.454 299.722 95.1761L299.305 90.7299L294.305 93.7867C293.889 94.0646 293.472 93.9256 293.194 93.5088C292.917 93.092 293.055 92.6751 293.472 92.3973L299.444 88.6458C299.722 88.5068 300 88.5068 300.139 88.6458C300.417 88.7847 300.555 88.9237 300.555 89.2016L300.972 93.5088L305.278 89.8963C305.555 89.7573 305.833 89.6184 306.111 89.7573C306.389 89.8963 306.528 90.1742 306.528 90.452L306.667 94.4814L311.111 91.2857C311.389 91.0078 311.944 91.1468 312.222 91.4247C312.5 91.7025 312.361 92.2583 312.083 92.5362L306.528 96.5656C306.528 96.9824 306.25 96.9824 306.111 96.9824Z" fill="#D79A3F"/>
<path d="M279.583 61.8298C279.583 61.8298 269.028 26.5382 263.889 14.1722C258.611 1.94521 242.361 -8.05871 232.361 9.58708C222.361 27.2329 232.5 41.8219 238.333 43.3503C244.167 44.8787 235.695 58.0783 242.222 59.7456C248.75 61.4129 250.695 76.9746 250.695 76.9746L279.583 61.8298Z" fill="#474747"/>
<path d="M216.528 17.09C216.528 17.09 208.75 22.7867 191.528 64.0528L179.444 66.6928C179.444 66.6928 158.195 94.8982 164.445 118.241C164.445 118.241 178.75 118.935 209.445 119.213C227.778 114.072 241.806 82.8102 241.806 82.8102L216.528 17.09Z" fill="#616161"/>
<path d="M118.611 54.0489L131.528 48.7691L191.528 63.9139C191.528 63.9139 162.639 73.2231 164.445 118.102H131.945L111.945 98.3718L98.3335 72.9452L118.611 54.0489Z" fill="#E6B55E"/>
<path d="M127.917 52.7984C127.917 52.7984 134.445 57.6615 132.222 67.5264C130.139 77.3914 112.5 76.2798 105.695 73.0842L127.917 52.7984Z" fill="#FFC9A7"/>
<path d="M110.833 37.5147C115.139 39.4599 119.583 46.1292 127.083 42.9335C134.583 39.7378 139.583 47.3796 136.667 52.1037C133.75 56.8278 122.222 62.1076 118.611 58.0783C114.861 54.3268 110.833 37.5147 110.833 37.5147Z" fill="#45342D"/>
<path d="M160.417 16.2564L137.5 21.1194V24.0372L162.5 16.3953L160.417 16.2564Z" fill="#EDE9E6"/>
<path d="M136.25 23.7593L162.5 16.3953L171.25 56.8278L150 68.2211L136.25 23.7593Z" fill="#5C7644"/>
<path d="M161.297 17.9746L159.806 18.3081L168.595 57.6306L170.086 57.2971L161.297 17.9746Z" fill="#395322"/>
<path d="M171.25 56.8278L177.917 45.2955L164.167 3.75147L162.5 16.3953L171.25 56.8278Z" fill="#395322"/>
<path d="M162.5 16.3953L160.417 16.2564L160 4.1683H161.25L162.361 3.89041L163.056 4.1683L164.167 4.30724L162.5 16.3953Z" fill="#EDE9E6"/>
<path d="M130 94.0646L138.611 61.4129L139.306 40.0157C139.306 40.0157 147.639 32.5127 149.583 31.4012C151.528 30.2896 144.167 42.2387 144.167 42.2387V44.3229C144.167 44.3229 147.917 41.1272 151.389 39.3209C154.861 37.5147 157.083 39.8767 156.528 40.7104C155.972 41.544 152.5 43.9061 152.5 43.9061C152.5 43.9061 155.417 43.3503 156.528 44.045C157.639 44.7397 155.139 47.9354 155.139 47.9354C155.139 47.9354 156.667 48.0744 156.667 49.6027C156.667 51.2701 153.056 52.2427 152.5 55.9941C151.944 59.6066 152.222 65.7202 147.917 65.5812L142.361 102.957L130 94.0646Z" fill="#FFC9A7"/>
<path d="M171.806 25.4266C169.722 27.3718 165.972 32.7906 167.5 32.3738C169.028 31.9569 172.083 30.2896 172.083 30.2896C172.083 30.2896 167.361 36.82 166.806 38.7652C166.25 40.8493 172.917 35.9863 172.917 35.9863C172.917 35.9863 164.028 44.4618 163.333 46.9628C162.639 49.4638 170 44.3229 170 44.3229C170 44.3229 167.917 48.0744 168.889 47.7965C169.861 47.5186 183.333 37.6536 179.583 36.5421C179.583 36.5421 178.611 30.7065 177.083 32.0959C177.083 32.0959 176.528 25.9824 174.306 28.0665C174.444 28.0665 173.333 23.8982 171.806 25.4266Z" fill="#F4B17F"/>
<path d="M97.0834 67.2485C97.0834 67.2485 77.9168 88.3679 91.6668 102.957C105.278 117.546 141.667 138.249 151.111 100.317L130.139 85.1722L124.445 99.3444C124.445 99.3444 124.722 83.227 97.0834 67.2485Z" fill="#E6B55E"/>
<path d="M125 96.8434L105 83.7828L105.833 82.5323L124.444 94.6204L129.444 84.8943L130.833 85.589L125 96.8434Z" fill="#CE9D45"/>
<path d="M110.833 37.5147C110.833 37.5147 111.667 28.9002 108.611 25.7045C105.556 22.5088 98.1945 22.092 90.139 20.5636C82.0834 19.1742 64.4445 22.092 67.7779 35.9863C71.1112 49.8806 60.2779 64.3307 70.5556 66.2759C80.9723 68.3601 85.4167 68.0822 86.1112 78.0861C86.9445 88.09 104.583 96.1487 113.611 81.5597C122.639 66.9706 97.5001 55.1605 97.5001 55.1605L110.833 37.5147Z" fill="#45342D"/>
<path d="M94.0278 57.8004L115.556 71.8337L128.056 60.3014L112.083 45.9902L94.0278 57.8004Z" fill="#FFC9A7"/>
<path d="M123.056 55.8552C123.056 55.8552 120.139 67.3875 102.222 60.7182L115.556 48.3523L123.056 55.8552Z" fill="#F4B17F"/>
<path d="M104.722 27.6497C104.722 27.6497 111.111 33.6243 116.667 41.683C122.222 49.7417 117.917 69.1937 94.0279 57.6615L89.3057 38.2094C89.3057 38.3483 93.7501 25.7045 104.722 27.6497Z" fill="#FFC9A7"/>
<path d="M91.5277 53.2153C91.5277 53.2153 100.556 43.0724 91.5277 33.4853C91.5277 33.4853 102.222 37.3757 108.472 31.5401C108.472 31.5401 105.278 20.2857 92.9166 28.7613C80.4166 37.0978 87.7777 50.8532 91.5277 53.2153Z" fill="#45342D"/>
<path d="M90.8334 58.6341C93.9016 58.6341 96.3889 56.1458 96.3889 53.0763C96.3889 50.0069 93.9016 47.5186 90.8334 47.5186C87.7651 47.5186 85.2778 50.0069 85.2778 53.0763C85.2778 56.1458 87.7651 58.6341 90.8334 58.6341Z" fill="#FFC9A7"/>
<path d="M255 120.603L235.833 120.047L230.278 73.7789L249.306 74.3346L255 120.603Z" fill="#FFC9A7"/>
<path d="M254.583 117.129C254.583 117.129 284.306 131.301 289.444 136.72L232.5 134.914L234.861 116.573C234.861 116.573 241.25 116.018 247.222 118.796C251.806 120.881 254.583 117.129 254.583 117.129Z" fill="#F1E4DD"/>
<path d="M232.5 134.914L289.444 136.72L290.139 142L232.361 140.055L232.5 134.914Z" fill="#F1E4DD"/>
<path d="M232.507 134.609L232.494 135.026L289.41 136.858L289.423 136.442L232.507 134.609Z" fill="#9BAFDE"/>
<path d="M268.889 129.495L270.139 124.354L263.75 126.994L264.861 121.297L258.333 122.965L258.194 122.548L265.417 120.742L264.167 126.299L270.833 123.66L269.444 128.939L275.555 126.855L275.694 127.133L268.889 129.495Z" fill="#9BAFDE"/>
<path d="M255 120.603L235.833 120.047L230.278 73.7789L249.306 74.3346L255 120.603Z" fill="#FFC9A7"/>
<path d="M254.583 117.129C254.583 117.129 284.306 131.301 289.444 136.72L232.5 134.914L234.861 116.573C234.861 116.573 241.25 116.018 247.222 118.796C251.806 120.881 254.583 117.129 254.583 117.129Z" fill="#B7673F"/>
<path d="M232.5 134.914L289.445 136.72L290.139 142L232.361 140.055L232.5 134.914Z" fill="#B7673F"/>
<path d="M289.445 137.415L232.5 135.609C232.083 135.609 231.806 135.192 231.806 134.775C231.806 134.358 232.222 134.08 232.639 134.08L289.583 135.887C290 135.887 290.278 136.303 290.278 136.72C290.139 137.137 289.861 137.415 289.445 137.415Z" fill="#D79A3F"/>
<path d="M269.028 130.051C268.889 130.051 268.611 129.912 268.472 129.912C268.334 129.773 268.195 129.495 268.195 129.217L269.167 125.466L264.028 127.55C263.75 127.689 263.472 127.55 263.195 127.411C262.917 127.272 262.917 126.994 262.917 126.716L263.889 122.27L258.195 123.66C257.778 123.798 257.361 123.521 257.222 123.104C257.084 122.687 257.361 122.27 257.778 122.131L264.584 120.325C264.861 120.325 265.139 120.325 265.278 120.464C265.417 120.603 265.556 120.881 265.556 121.159L264.722 125.466L270 123.382C270.278 123.243 270.556 123.382 270.834 123.521C271.111 123.66 271.111 124.076 271.111 124.354L270.139 128.245L275.278 126.438C275.695 126.299 276.111 126.577 276.25 126.855C276.389 127.272 276.111 127.689 275.834 127.828L269.306 130.051C269.306 129.912 269.167 130.051 269.028 130.051Z" fill="#D79A3F"/>
<path d="M252.222 84.8943C252.222 84.8943 252.778 43.9061 251.25 29.1781C249.722 14.4501 235.833 -1.52838 219.445 13.8943C203.056 29.317 208.889 48.2133 214.583 51.6869C220.139 55.1605 206.806 66.2759 213.195 70.3053C219.583 74.3346 216.389 91.2857 216.389 91.2857L252.222 84.8943Z" fill="#616161"/>
<path d="M215.556 92.2583L215.695 91.1468C215.695 91.0078 218.611 74.6125 212.778 70.8611C208.889 68.499 211.111 63.9139 213.056 60.0235C215 55.9941 216.111 53.4932 214.167 52.2427L215 50.9922C218.333 53.0763 216.25 57.1057 214.444 60.7182C212.361 65.0254 211.111 67.9433 213.611 69.6106C219.445 73.2231 217.917 86.4227 217.361 90.3131L252.083 84.0607L252.361 85.589L215.556 92.2583Z" fill="#393939"/>
</g>
<defs>
<clipPath id="clip0_246_9364">
<rect width="330" height="142" fill="white"/>
</clipPath>
</defs>
</svg>
