<svg width="122" height="204" viewBox="0 0 122 204" fill="none" xmlns="http://www.w3.org/2000/svg">
<g id="Girl 1 / image">
<g id="Group">
<g id="Group_2">
<g id="Group_3">
<g id="Group_4">
<path id="Vector" d="M60.6592 202.264C60.3671 202.264 60.0751 202.167 59.8803 201.878L15.0918 132.624C14.7997 132.238 14.9944 131.66 15.3839 131.37C15.7734 131.081 16.3576 131.274 16.6497 131.66L61.4382 200.913C61.7303 201.299 61.5355 201.878 61.1461 202.167C60.9513 202.264 60.854 202.264 60.6592 202.264Z" fill="#624F2E"/>
</g>
<g id="Group_5">
<path id="Vector_2" d="M15.8707 202.264C15.6759 202.264 15.5786 202.264 15.3839 202.167C14.9944 201.878 14.897 201.396 15.0918 200.913L59.8803 131.66C60.1724 131.274 60.6592 131.177 61.146 131.37C61.5355 131.66 61.6328 132.142 61.4381 132.624L16.6496 201.878C16.4549 202.167 16.1628 202.264 15.8707 202.264Z" fill="#624F2E"/>
</g>
<g id="Group_6">
<path id="Vector_3" d="M37.5835 155.098C30.3784 155.098 23.0759 153.362 23.0759 150.179C23.0759 146.899 30.3784 145.26 37.5835 145.26C44.7886 145.26 52.0911 146.996 52.0911 150.179C52.0911 153.362 44.7886 155.098 37.5835 155.098ZM37.5835 146.899C29.4047 146.899 24.8285 149.021 24.8285 150.082C24.8285 151.143 29.3074 153.265 37.5835 153.265C45.7623 153.265 50.3385 151.143 50.3385 150.082C50.3385 149.021 45.8596 146.899 37.5835 146.899Z" fill="#624F2E"/>
</g>
<g id="Group_7">
<path id="Vector_4" d="M37.5835 189.532C30.3784 189.532 23.0759 187.796 23.0759 184.613C23.0759 181.333 30.3784 179.694 37.5835 179.694C44.7886 179.694 52.0911 181.43 52.0911 184.613C52.0911 187.796 44.7886 189.532 37.5835 189.532ZM37.5835 181.333C29.4047 181.333 24.8285 183.455 24.8285 184.516C24.8285 185.577 29.3074 187.699 37.5835 187.699C45.7623 187.699 50.3385 185.577 50.3385 184.516C50.3385 183.455 45.8596 181.333 37.5835 181.333Z" fill="#624F2E"/>
</g>
<g id="Group_8">
<path id="Vector_5" d="M42.6466 204C42.1598 204 41.8677 203.711 41.7703 203.228L33.7863 131.37C33.6889 130.888 34.0784 130.502 34.5652 130.406C35.052 130.309 35.4415 130.695 35.5389 131.177L43.5229 203.035C43.6203 203.518 43.2308 203.904 42.744 204C42.6466 204 42.6466 204 42.6466 204Z" fill="#624F2E"/>
</g>
</g>
<g id="Group_9">
<g id="Group_10">
<path id="Vector_6" d="M67.8644 126.065H11.0999V133.299H67.8644V126.065Z" fill="#434646"/>
</g>
<g id="Group_11">
<path id="Vector_7" d="M11.0999 126.065C11.0999 126.065 15.8708 117.77 20.5444 117.77H60.2698C60.2698 117.77 67.8644 121.339 67.8644 126.065H11.0999Z" fill="#555A5A"/>
</g>
</g>
<g id="Group_12">
<g id="Group_13">
<path id="Vector_8" d="M60.7566 158.088H49.3647V191.943H60.7566V158.088Z" fill="#F4B17F"/>
</g>
<g id="Group_14">
<g id="Group_15">
<path id="Vector_9" d="M60.6592 188.471C60.6592 188.471 78.0878 195.994 81.2035 199.081H48.2937L49.3647 188.471C49.3647 188.471 53.0647 188.085 56.5698 189.532C59.1014 190.689 60.6592 188.471 60.6592 188.471Z" fill="#624F2E"/>
</g>
<g id="Group_16">
<path id="Vector_10" d="M48.2937 199.081H81.2035L81.6904 202.071H48.2937V199.081Z" fill="#624F2E"/>
</g>
<g id="Group_17">
<path id="Vector_11" d="M81.2035 199.563H48.2937C48.0016 199.563 47.8069 199.37 47.8069 199.081C47.8069 198.791 48.0016 198.599 48.2937 198.599H81.2035C81.4956 198.599 81.6904 198.791 81.6904 199.081C81.593 199.37 81.3983 199.563 81.2035 199.563Z" fill="#EDE9E6"/>
</g>
<g id="Group_18">
<path id="Vector_12" d="M69.3249 195.609C69.2276 195.609 69.1302 195.609 69.0328 195.512C68.9355 195.416 68.8381 195.223 68.9355 195.126L69.4223 193.004L66.5013 194.258C66.3066 194.355 66.2092 194.258 66.0145 194.162C65.9171 194.065 65.8198 193.872 65.8198 193.776L66.3066 191.172L63.0935 192.136C62.8988 192.233 62.6067 192.04 62.5093 191.847C62.4119 191.654 62.6067 191.365 62.8014 191.268L66.6961 190.111C66.8908 190.111 66.9882 190.111 67.0855 190.207C67.1829 190.304 67.2802 190.496 67.1829 190.593L66.7934 193.004L69.8118 191.75C70.0065 191.654 70.1039 191.75 70.2986 191.847C70.396 191.943 70.4933 192.136 70.4933 192.329L70.0065 194.548L72.9275 193.487C73.1222 193.39 73.4143 193.487 73.5117 193.776C73.6091 193.969 73.5117 194.258 73.2196 194.355L69.5197 195.705C69.4223 195.609 69.3249 195.609 69.3249 195.609Z" fill="#EDE9E6"/>
</g>
</g>
</g>
<g id="Group_19">
<path id="Vector_13" d="M17.7208 99.9262C17.7208 99.9262 16.2603 110.44 20.5444 117.77H38.5571C38.5571 117.77 39.4334 124.04 38.5571 129.441C37.6808 134.939 34.9546 139.569 38.5571 142.655C42.5492 146.128 31.7415 153.458 35.8309 157.509C39.9203 161.56 35.7335 168.794 35.7335 168.794H62.8014V116.709L71.8564 116.131L68.7407 96.1645C68.7407 96.1645 40.9913 81.0213 17.7208 99.9262Z" fill="#CB9B4C"/>
</g>
<g id="Group_20">
<path id="Vector_14" d="M27.6521 41.3787L44.107 39.5461L63.775 44.3688L68.7407 96.1645C68.7407 96.1645 35.6361 89.6057 17.7207 99.8298L27.6521 41.3787Z" fill="white"/>
</g>
<g id="Group_21">
<g id="Group_22">
<g id="Group_23">
<path id="Vector_15" d="M38.9465 14.7574C37.3886 15.6255 32.8124 16.4936 30.9625 14.7574C27.652 11.7674 31.4493 0 38.4597 0C45.47 0 47.0279 12.0567 47.0279 12.0567L38.9465 14.7574Z" fill="#3A2C27"/>
</g>
</g>
<g id="Group_24">
<g id="Group_25">
<path id="Vector_16" d="M32.5203 16.8794C31.2546 16.8794 30.0862 16.4936 29.2099 15.4326C27.7494 13.6965 27.7494 10.8028 29.2099 7.81277C30.7677 4.62979 33.9808 1.35035 37.7781 1.35035V1.83262C34.2729 1.83262 31.0598 5.0156 29.5993 8.10213C28.2362 10.9957 28.2362 13.6 29.502 15.2397C32.7151 19.1943 41.7701 12.539 41.8675 12.539L42.1596 12.9248C41.8675 13.0213 36.5123 16.8794 32.5203 16.8794Z" fill="#3A2C27"/>
</g>
</g>
</g>
<g id="Group_26">
<g id="Group_27">
<path id="Vector_17" d="M42.6466 35.3986C42.6466 35.3986 32.2284 31.8298 34.4678 19.2908C36.7072 6.75177 56.1805 1.44681 62.8014 17.0723L55.0121 30.5759L42.6466 35.3986Z" fill="#45342D"/>
</g>
</g>
<g id="Group_28">
<path id="Vector_18" d="M57.7383 28.5504H44.8859L38.5571 42.2468L49.2674 57.2936L50.1437 43.3078L57.7383 28.5504Z" fill="#FFC9A7"/>
</g>
<g id="Group_29">
<path id="Vector_19" d="M62.8013 16.9759C62.8013 16.9759 64.1644 23.1489 64.1644 30.1901C64.1644 37.2312 53.6488 46.9731 44.1069 30.4794L49.2673 16.9759C49.2673 16.9759 57.154 11.3816 62.8013 16.9759Z" fill="#FFC9A7"/>
</g>
<g id="Group_30">
<path id="Vector_20" d="M46.7359 26.4284C46.7359 26.4284 51.7016 25.4638 54.2331 15.8184C54.2331 15.8184 58.8093 20.3518 64.0671 20.3518C64.0671 20.3518 65.8197 9.54893 53.941 11.478C42.0623 13.4071 46.7359 26.4284 46.7359 26.4284Z" fill="#3A2C27"/>
</g>
<g id="Group_31">
<path id="Vector_21" d="M44.107 30.4794C46.3655 30.4794 48.1964 28.6657 48.1964 26.4284C48.1964 24.191 46.3655 22.3773 44.107 22.3773C41.8485 22.3773 40.0176 24.191 40.0176 26.4284C40.0176 28.6657 41.8485 30.4794 44.107 30.4794Z" fill="#FFC9A7"/>
</g>
<g id="Group_32">
<path id="Vector_22" d="M27.6521 41.3787C20.3497 43.0184 15.7734 52.8567 15.7734 69.1574C15.7734 85.4582 16.6497 103.977 39.4334 94.5248L42.5492 82.9504L35.6362 80.6355C35.6362 80.539 39.6282 38.678 27.6521 41.3787Z" fill="white"/>
</g>
<g id="Group_33">
<path id="Vector_23" d="M42.3544 83.4326C42.3544 83.4326 50.5332 84.0113 52.7726 84.3007C55.012 84.5901 63.3855 89.6057 63.3855 89.6057L43.4254 92.5957L39.0439 93.4638L42.3544 83.4326Z" fill="#FFC9A7"/>
</g>
<g id="Group_34">
<path id="Vector_24" d="M63.775 44.3688C68.1564 46.8766 74.1932 45.1404 76.8221 82.9504L63.3855 87.966L63.775 44.3688Z" fill="white"/>
</g>
<g id="Group_35">
<path id="Vector_25" d="M61.6329 85.6511L60.7566 85.5546C60.7566 85.4581 61.2434 82.1787 64.5539 76.3915C67.767 70.8936 66.3065 56.3291 66.3065 56.2326L67.1828 56.1362C67.2801 56.7149 68.7406 71.0865 65.3328 76.8738C62.1197 82.4681 61.6329 85.6511 61.6329 85.6511Z" fill="#D9E7E7"/>
</g>
<g id="Group_36">
<path id="Vector_26" d="M52.3833 38.9674L47.1255 34.8199L51.0201 41.6681L52.3833 38.9674Z" fill="#F4B17F"/>
</g>
<g id="Group_37">
<g id="Group_38">
<path id="Vector_27" d="M67.7669 86.3262L83.8323 74.6553L78.1851 100.023L65.2354 107.353L67.7669 86.3262Z" fill="#F7F5F4"/>
</g>
<g id="Group_39">
<path id="Vector_28" d="M67.7669 86.3262L85.7796 75.8128L80.1324 101.18L65.2354 107.353L67.7669 86.3262Z" fill="#EDE9E6"/>
</g>
<g id="Group_40">
<path id="Vector_29" d="M67.7669 86.3262L47.1252 78.0312L48.391 101.566L65.9169 105.81L67.7669 86.3262Z" fill="#F7F5F4"/>
</g>
<g id="Group_41">
<path id="Vector_30" d="M67.767 86.3262L46.3464 79.5745L47.7096 103.013L65.2355 107.353L67.767 86.3262Z" fill="#EDE9E6"/>
</g>
<g id="Group_42">
<path id="Vector_31" d="M67.7669 86.3262L87.8243 77.8383L80.9113 102.627L65.2354 107.353L67.7669 86.3262Z" fill="#797877"/>
</g>
<g id="Group_43">
<path id="Vector_32" d="M68.6437 86.293L66.6868 104.904L67.5583 104.994L69.5152 86.3829L68.6437 86.293Z" fill="#5F5F5F"/>
</g>
<g id="Group_44">
<path id="Vector_33" d="M67.767 86.3262L45.178 80.7319L46.0543 102.627L65.2354 107.353L67.767 86.3262Z" fill="#5F5F5F"/>
</g>
</g>
<g id="Group_45">
<g id="Group_46">
<g id="Group_47">
<path id="Vector_34" d="M88.1167 164.84L98.6322 160.692L86.1693 129.248L75.5564 133.396L88.1167 164.84Z" fill="#FFC9A7"/>
</g>
<g id="Group_48">
<g id="Group_49">
<path id="Vector_35" d="M97.4638 157.606C97.4638 157.606 116.45 158.281 120.442 159.921L89.8692 171.977L86.9482 161.753C86.9482 161.753 90.1613 160.017 94.056 160.113C96.7822 160.113 97.4638 157.606 97.4638 157.606Z" fill="#624F2E"/>
</g>
<g id="Group_50">
<path id="Vector_36" d="M89.772 171.977L120.345 159.921L122 162.525L90.9404 174.774L89.772 171.977Z" fill="#624F2E"/>
</g>
<g id="Group_51">
<path id="Vector_37" d="M89.7719 172.363C89.5772 172.363 89.3825 172.267 89.3825 172.074C89.2851 171.881 89.3825 171.591 89.6746 171.495L120.248 159.438C120.442 159.342 120.734 159.438 120.832 159.728C120.929 159.921 120.832 160.21 120.54 160.306L89.9667 172.363C89.8693 172.363 89.8693 172.363 89.7719 172.363Z" fill="#EDE9E6"/>
</g>
<g id="Group_52">
<path id="Vector_38" d="M107.882 160.982C107.785 160.982 107.785 160.982 107.687 160.982C107.492 160.885 107.395 160.789 107.395 160.596L107.103 158.377L104.864 160.596C104.766 160.692 104.571 160.789 104.377 160.692C104.182 160.692 104.085 160.499 104.085 160.403L103.598 157.895L100.969 159.921C100.774 160.113 100.482 160.017 100.385 159.824C100.19 159.631 100.287 159.342 100.482 159.245L103.695 156.738C103.793 156.641 103.987 156.641 104.085 156.641C104.182 156.738 104.377 156.834 104.377 156.93L104.864 159.342L107.103 157.027C107.2 156.93 107.395 156.834 107.59 156.93C107.785 157.027 107.882 157.123 107.882 157.316L108.271 159.535L110.608 157.413C110.803 157.22 111.095 157.22 111.192 157.413C111.387 157.606 111.387 157.895 111.192 157.991L108.271 160.692C108.077 160.982 107.979 160.982 107.882 160.982Z" fill="#EDE9E6"/>
</g>
</g>
</g>
<g id="Group_53">
<path id="Vector_39" d="M17.7209 99.9262C17.7209 99.9262 14.4104 109.957 20.5445 117.77H60.2699L63.1909 90.6667C63.1909 90.6667 19.7655 88.3518 17.7209 99.9262Z" fill="#E4B662"/>
</g>
<g id="Group_54">
<path id="Vector_40" d="M61.7305 90.8596C52.4807 93.7532 45.4703 102.723 50.8255 108.704C59.4911 118.349 53.8438 127.801 59.199 128.091C64.5541 128.38 59.1016 134.746 62.8015 137.157C66.4041 139.472 68.1567 138.218 67.5725 146.803L91.2325 137.736C91.1351 137.929 76.2381 86.3262 61.7305 90.8596Z" fill="#E4B662"/>
</g>
</g>
<g id="Group_55">
<path id="Vector_41" d="M87.8245 81.9858C86.1693 81.9858 82.4694 82.7574 83.2483 83.2397C84.0273 83.722 86.072 84.2043 86.072 84.2043C86.072 84.2043 81.4957 85.0723 80.4247 85.7475C79.3537 86.4227 84.1246 87.0014 84.1246 87.0014C84.1246 87.0014 77.0169 87.0979 75.7511 87.773C74.4854 88.4482 79.6458 89.2199 79.6458 89.2199C79.6458 89.2199 77.309 89.9915 77.7958 90.2808C78.2827 90.5702 87.9219 91.6312 86.7535 89.7986C86.7535 89.7986 88.7009 87.0014 87.4351 87.0014C87.4351 87.0014 89.6745 84.2043 87.8245 84.2043C87.8245 84.1078 88.9929 81.9858 87.8245 81.9858Z" fill="#FFC9A7"/>
</g>
<g id="Group_56">
<path id="Vector_42" d="M42.4518 83.2397L35.1494 80.7319V80.3461C35.1494 80.1532 36.6099 64.7206 35.052 53.339L35.9283 53.2426C37.3888 63.756 36.2204 77.7418 36.0257 80.1532L42.6466 82.3716L42.4518 83.2397Z" fill="#D9E7E7"/>
</g>
</g>
</g>
</g>
</svg>
