<svg width="146" height="152" viewBox="0 0 146 152" fill="none" xmlns="http://www.w3.org/2000/svg">
<g id="Girl 2 / image">
<g id="Group">
<g id="Group_2">
<g id="Group_3">
<g id="Group_4">
<g id="Group_5">
<path id="Vector" d="M91.7453 87.8145L73.6904 76.3775C66.1052 71.6744 56.1696 74.1329 51.7894 81.9357L20.1665 139.655H36.4053L66.6393 99.4654L72.7289 105.772L91.7453 87.8145Z" fill="#F1BA97"/>
</g>
<g id="Group_6">
<g id="Group_7">
<path id="Vector_2" d="M26.47 128.004C26.47 128.004 5.21004 134.097 1.36401 137.09L39.7175 141.9L41.4268 134.204C41.4268 134.204 39.0764 130.249 30.3161 130.784C27.111 130.997 26.47 128.004 26.47 128.004Z" fill="black"/>
</g>
<g id="Group_8">
<path id="Vector_3" d="M39.6104 141.9L1.25692 137.09L0.29541 140.51L39.183 145.32L39.6104 141.9Z" fill="black"/>
</g>
<g id="Group_9">
<path id="Vector_4" d="M1.37761 136.672L1.27197 137.52L39.6481 142.303L39.7538 141.454L1.37761 136.672Z" fill="#E5B765"/>
</g>
<g id="Group_10">
<path id="Vector_5" d="M15.8935 135.059L11.0859 132.601L11.5133 131.852L14.8251 133.563L14.3978 129.928L18.4575 132.387L18.3507 128.646L23.265 130.784L22.8377 131.639L19.2053 130.035L19.419 133.99L15.4661 131.639L15.8935 135.059Z" fill="#E5B765"/>
</g>
</g>
</g>
<g id="Group_11">
<path id="Vector_6" d="M118.561 46.9833C118.561 46.9833 123.262 46.9833 127.749 46.9833C132.236 46.9833 152.427 83.3252 143.56 98.6102C143.56 98.6102 145.697 118.812 122.514 132.173C122.514 132.173 127.962 119.774 118.561 105.665H96.2325C96.2325 105.665 82.6646 54.5723 89.9293 50.2968C97.3008 46.1282 118.561 46.9833 118.561 46.9833Z" fill="#5C7644"/>
</g>
<g id="Group_12">
<g id="Group_13">
<path id="Vector_7" d="M52.217 56.9239L53.2854 54.9999L58.4134 56.817L55.2084 52.8621C55.2084 52.8621 62.3663 57.3514 63.6483 60.6649C63.6483 60.6649 64.503 58.2065 69.5242 59.3823C74.5454 60.5581 79.1392 61.5201 79.1392 61.5201L81.3828 64.2991L66.426 67.5058L52.217 56.9239Z" fill="#F7F5F4"/>
</g>
<g id="Group_14">
<path id="Vector_8" d="M63.755 61.6269L62.1525 63.0165L51.5759 56.6032L72.7291 80.9737L84.9082 84.3941L63.755 61.6269Z" fill="#D7943C"/>
</g>
<g id="Group_15">
<path id="Vector_9" d="M94.0958 77.6602L93.1343 76.3775L80.7415 62.9096L63.7549 61.6269L84.908 84.3941L96.9803 84.1803L94.0958 77.6602Z" fill="#E2B45F"/>
</g>
<g id="Group_16">
<path id="Vector_10" d="M62.4533 62.718L61.8164 63.2882L78.4884 81.9271L79.1253 81.3568L62.4533 62.718Z" fill="#E2B45F"/>
</g>
</g>
<g id="Group_17">
<path id="Vector_11" d="M102.536 107.375L82.1304 89.6316L66.7463 108.337C66.7463 108.337 87.7927 129.608 92.2797 129.608C99.5444 129.608 105.848 129.608 105.848 129.608C105.848 129.608 110.548 116.354 102.536 107.375Z" fill="#4E6280"/>
</g>
<g id="Group_18">
<g id="Group_19">
<path id="Vector_12" d="M103.391 87.8145L85.3356 76.3775C77.8573 71.6744 67.8149 74.2397 63.4347 81.9357L31.8118 139.655H48.0505L78.2846 99.4654L84.3741 105.772L103.391 87.8145Z" fill="#FFC9A7"/>
</g>
<g id="Group_20">
<g id="Group_21">
<path id="Vector_13" d="M35.551 132.921C35.551 132.921 16.3208 143.824 13.2227 147.672L51.5761 143.29L51.4693 135.38C51.4693 135.38 48.2642 132.066 39.9312 134.632C36.833 135.594 35.551 132.921 35.551 132.921Z" fill="#292929"/>
</g>
<g id="Group_22">
<path id="Vector_14" d="M51.5759 143.29L13.2225 147.672L13.0088 151.092L52.0032 146.71L51.5759 143.29Z" fill="#292929"/>
</g>
<g id="Group_23">
<path id="Vector_15" d="M51.6246 142.827L13.1943 147.172L13.2903 148.022L51.7206 143.677L51.6246 142.827Z" fill="#E5B765"/>
</g>
<g id="Group_24">
<path id="Vector_16" d="M26.8975 142.221L21.6626 140.938L21.8763 140.083L25.5086 140.938L24.3334 137.624L28.8205 139.014L27.7521 135.487L33.0938 136.342L32.8802 137.197L29.0341 136.556L30.1025 140.297L25.7223 138.907L26.8975 142.221Z" fill="#E5B765"/>
</g>
</g>
</g>
<g id="Group_25">
<path id="Vector_17" d="M118.561 105.665L94.0959 84.2872L76.7888 108.23C76.7888 108.23 100.506 132.173 106.275 132.173C115.035 132.173 122.621 132.173 122.621 132.173C122.621 132.173 128.283 116.354 118.561 105.665Z" fill="#6B85AD"/>
</g>
<g id="Group_26">
<path id="Vector_18" d="M104.672 84.7148L98.5828 77.5533L91.2112 74.2397L93.6684 77.1257C93.6684 77.1257 88.0062 78.6222 85.549 77.6602C83.0918 76.6982 82.4508 76.3775 82.985 77.5533C83.5192 78.729 85.7627 80.3324 88.0062 80.5461C88.0062 80.5461 89.1814 86.5319 89.5019 87.387C89.8224 88.2421 98.2623 90.1661 98.2623 90.1661L103.711 94.5485L104.672 84.7148Z" fill="#FFC9A7"/>
</g>
<g id="Group_27">
<path id="Vector_19" d="M103.925 58.5272L97.4077 51.7932L100.292 43.7766L116.317 43.0284L103.925 58.5272Z" fill="#F7F5F4"/>
</g>
<g id="Group_28">
<path id="Vector_20" d="M124.33 27.3158L124.009 27.1021C122.621 26.0332 123.262 22.6128 123.903 19.2992C124.223 17.6959 124.544 16.0926 124.65 14.5961C124.971 12.8859 125.078 11.3895 124.757 10.2137C123.368 6.04509 108.732 -3.04041 99.5444 1.02134C89.9293 5.29687 96.6599 12.2446 96.6599 12.2446L107.771 41.8526H125.185C129.992 33.4085 125.398 30.2018 122.834 28.3847C122.086 27.8503 121.873 26.6745 121.98 25.1781C122.086 26.4607 122.407 27.4227 123.262 28.0641L123.582 28.2778C126.146 30.0949 131.06 33.6222 126.68 41.9595H127.855C132.342 33.0878 126.787 29.1329 124.33 27.3158Z" fill="#010004"/>
</g>
<g id="Group_29">
<path id="Vector_21" d="M83.5192 41.8526H104.672L97.3008 9.03796C97.3008 9.03796 86.6174 9.99995 87.8994 25.1781C88.6473 33.9429 80.8484 33.3016 83.5192 41.8526Z" fill="#010004"/>
</g>
<g id="Group_30">
<path id="Vector_22" d="M115.89 51.6863L108.198 30.6294H95.3779L103.177 51.6863L104.672 64.406L115.89 51.6863Z" fill="#FFC9A7"/>
</g>
<g id="Group_31">
<path id="Vector_23" d="M112.578 42.494L109.373 34.0498L104.352 38.2184L112.578 42.494Z" fill="#B3634C"/>
</g>
<g id="Group_32">
<path id="Vector_24" d="M115.356 13.0997C115.356 13.0997 116.852 20.1543 116.852 28.1709C116.852 36.1875 104.993 47.4108 94.0959 28.4916L99.9718 13.0997C99.9718 13.0997 108.946 6.68641 115.356 13.0997Z" fill="#FFC9A7"/>
</g>
<g id="Group_33">
<path id="Vector_25" d="M95.378 25.7125C95.378 25.7125 101.361 27.7434 100.186 13.9548C100.186 13.9548 110.442 8.28974 115.89 16.3064C115.89 16.3064 117.706 12.2446 113.112 7.96908C108.519 3.58666 98.9035 4.54865 96.5532 12.4584C94.3097 20.1543 95.378 25.7125 95.378 25.7125Z" fill="#010004"/>
</g>
<g id="Group_34">
<path id="Vector_26" d="M94.4163 31.6982C96.8354 31.6982 98.7965 29.7362 98.7965 27.3158C98.7965 24.8955 96.8354 22.9334 94.4163 22.9334C91.9972 22.9334 90.0361 24.8955 90.0361 27.3158C90.0361 29.7362 91.9972 31.6982 94.4163 31.6982Z" fill="#FFC9A7"/>
</g>
<g id="Group_35">
<path id="Vector_27" d="M110.655 57.6721L106.275 52.7552L116.318 43.0284L118.561 46.9833L118.027 53.1828L110.655 57.6721Z" fill="#F7F5F4"/>
</g>
<g id="Group_36">
<path id="Vector_28" d="M126.68 49.8692C121.766 48.9072 113.646 52.3277 120.377 87.0663L105.42 81.4012L98.1555 93.2658C98.1555 93.2658 111.83 112.185 129.992 104.062C148.154 95.938 135.547 51.5794 126.68 49.8692Z" fill="#5C7644"/>
</g>
<path id="Vector_29" d="M121.018 87.7077L105.313 81.7219L105.634 80.8668L119.843 86.3181C117.813 76.0568 117.065 67.7196 117.493 61.6269L118.347 61.7338C117.92 67.9333 118.775 76.3775 120.804 86.9594L121.018 87.7077Z" fill="#395322"/>
<g id="Group_37">
<path id="Vector_30" d="M90.0362 77.767C88.4337 77.9808 86.6175 78.0877 85.4423 77.6602C82.9852 76.6982 82.3442 76.3775 82.8783 77.5533C83.4125 78.729 85.656 80.3324 87.8995 80.5461C87.8995 80.5461 89.0747 86.5319 89.3952 87.387C89.6089 87.8145 92.3866 88.6696 94.7369 89.311L90.0362 77.767Z" fill="#F1BA97"/>
</g>
</g>
</g>
</g>
</g>
</svg>
