<svg width="137" height="226" viewBox="0 0 137 226" fill="none" xmlns="http://www.w3.org/2000/svg">
<g id="Group">
<g id="Group_2">
<g id="Group_3">
<g id="Group_4">
<path id="Vector" d="M1.05588 179.911C0.923892 179.977 0.791907 180.108 0.659923 180.24C0.395954 180.503 0.263969 180.832 0.131985 181.161C0 181.358 0 181.556 0 181.753V191.492C0 191.558 0 191.624 0 191.69C0 191.821 0.0659923 191.953 0.131985 192.019C0.197977 192.085 0.197977 192.151 0.263969 192.151C19.7977 203.403 39.3974 214.656 58.9311 225.908C58.7991 225.843 58.7331 225.711 58.6671 225.645C58.6012 225.514 58.6012 225.382 58.6012 225.25V215.511C58.6012 215.314 58.6012 215.182 58.6671 214.985C58.7991 214.656 58.9311 214.327 59.1951 214.064C59.3271 213.932 59.4591 213.8 59.591 213.735L1.05588 179.911Z" fill="#092A4F"/>
<path id="Vector_2" d="M1.05615 179.911L59.7233 213.669L99.7146 190.703L41.0475 156.879L1.05615 179.911Z" fill="#3D6591"/>
<path id="Vector_3" d="M58.6675 215.511V225.25C58.6675 225.382 58.6675 225.514 58.7335 225.645C58.7995 225.777 58.8655 225.843 58.9974 225.908C59.0634 225.908 59.0634 225.974 59.1294 225.974C59.3274 226.04 59.5914 225.974 59.7893 225.843L99.7807 202.811V202.087L59.7893 225.119H59.7234C59.7234 225.119 59.7234 225.119 59.6574 225.119H59.5914C59.5914 225.119 59.5914 225.119 59.5254 225.119H59.4594C59.4594 225.119 59.4594 225.119 59.3934 225.119C59.3934 225.119 59.3934 225.119 59.3274 225.119C59.3274 225.119 59.3274 225.119 59.2614 225.119C59.2614 225.119 59.2614 225.119 59.2614 225.053C59.2614 225.053 59.2614 225.053 59.2614 224.987C59.2614 224.987 59.2614 224.987 59.2614 224.921V224.856V224.592V215.182V215.116V215.051V214.985V214.919V214.853C59.2614 214.853 59.2614 214.787 59.3274 214.787C59.3274 214.787 59.3274 214.722 59.3934 214.722C59.3934 214.722 59.3934 214.656 59.4594 214.656C59.4594 214.656 59.4594 214.59 59.5254 214.59L59.5914 214.524L59.6574 214.458C59.6574 214.458 59.7234 214.458 59.7234 214.393L98.3948 192.085L99.6487 191.361V190.637L59.6574 213.669C59.5254 213.734 59.3934 213.866 59.2614 213.998C58.9974 214.261 58.7995 214.59 58.7335 214.919C58.7335 215.182 58.6675 215.314 58.6675 215.511Z" fill="#0A1E33"/>
<path id="Vector_4" d="M98.4606 192.15V202.153C85.3281 209.72 72.4596 217.156 59.3271 224.658V215.116V215.051V214.985V214.919V214.853C59.3271 214.853 59.3271 214.787 59.3931 214.787C59.3931 214.787 59.3931 214.722 59.4591 214.722C59.4591 214.722 59.4591 214.656 59.5251 214.656C59.5251 214.656 59.5251 214.59 59.5911 214.59L59.6571 214.524C59.6571 214.524 59.7231 214.524 59.7231 214.458C59.7231 214.458 59.7891 214.458 59.7891 214.393L98.4606 192.15Z" fill="#E6E9FF"/>
<path id="Vector_5" opacity="0.35" d="M98.4606 192.15V193.993C85.3941 201.495 72.4596 208.997 59.3271 216.498V215.116V215.051V214.985V214.919V214.853C59.3271 214.853 59.3271 214.787 59.3931 214.787C59.3931 214.787 59.3931 214.722 59.4591 214.722C59.4591 214.722 59.4591 214.656 59.5251 214.656C59.5251 214.656 59.5251 214.59 59.5911 214.59L59.6571 214.524C59.6571 214.524 59.7231 214.524 59.7231 214.458C59.7231 214.458 59.7891 214.458 59.7891 214.393L98.4606 192.15Z" fill="#ADB8E8"/>
<path id="Vector_6" d="M59.3271 224.921C59.3271 224.987 59.3271 224.987 59.3271 224.987V225.053V225.119C59.3271 225.119 59.3271 225.119 59.3271 225.185C59.3271 225.185 59.3271 225.185 59.3931 225.185C59.3931 225.185 59.3931 225.185 59.4591 225.185C59.4591 225.185 59.4591 225.185 59.5251 225.185H59.5911C59.5911 225.185 59.5911 225.185 59.6571 225.185H59.7231C59.7231 225.185 59.7231 225.185 59.7891 225.185H59.8551L99.8464 202.153L98.5926 201.429C98.5926 201.692 98.5926 201.89 98.5926 202.153C85.4601 209.72 72.5916 217.156 59.4591 224.658V224.921H59.3271Z" fill="#283D93"/>
<g id="Group_5">
<path id="Vector_7" d="M59.7231 213.669C66.3224 209.72 72.9876 205.904 79.6528 202.021C86.318 198.205 92.9833 194.388 99.7145 190.637C93.1152 194.585 86.45 198.402 79.7848 202.284C73.1196 206.101 66.4544 209.984 59.7231 213.669Z" fill="#455EC4"/>
</g>
<g id="Group_6">
<path id="Vector_8" d="M59.7231 225.119C66.3224 221.17 72.9876 217.354 79.6528 213.471C86.318 209.655 92.9833 205.838 99.7145 202.087C93.1152 206.035 86.45 209.852 79.7848 213.735C73.1196 217.551 66.4544 221.434 59.7231 225.119Z" fill="#040E19"/>
</g>
<path id="Vector_9" opacity="0.35" d="M1.78174 179.516L57.2813 211.431L98.4604 187.676L43.0269 155.76L1.78174 179.516Z" fill="#203F61"/>
</g>
<g id="Group_7">
<g id="Group_8">
<path id="Vector_10" d="M136.669 184.517C136.603 184.583 136.538 184.583 136.472 184.649V57.5136C136.538 57.4477 136.603 57.4477 136.669 57.3819C136.801 57.3161 136.867 57.1845 136.933 57.0529C136.933 56.9871 136.999 56.9213 136.999 56.8555C136.999 99.2339 136.999 141.612 136.999 183.991C136.999 184.056 136.999 184.122 136.933 184.188C136.867 184.32 136.801 184.451 136.669 184.517Z" fill="#325F91"/>
<path id="Vector_11" d="M135.944 54.3548C136.274 55.4077 136.472 56.3948 136.472 57.4477L132.776 59.5534C132.776 58.5006 132.644 57.4477 132.248 56.4606C131.588 54.4207 130.532 52.5781 129.08 50.9988C128.354 50.2091 127.563 49.5511 126.639 49.0246L130.334 46.9189C131.258 47.4453 132.05 48.1034 132.776 48.893C134.228 50.4724 135.284 52.3149 135.944 54.3548Z" fill="#6792C1"/>
<path id="Vector_12" d="M136.472 57.5135V184.649C136.472 185.044 136.472 185.373 136.406 185.767C136.274 186.491 136.01 187.215 135.548 187.873C135.284 188.202 135.02 188.465 134.69 188.597C133.436 189.321 132.248 189.979 130.995 190.703C131.325 190.505 131.589 190.242 131.853 189.979C132.314 189.321 132.644 188.663 132.71 187.873C132.776 187.478 132.776 187.083 132.776 186.754V59.6193L136.472 57.5135Z" fill="#6792C1"/>
<path id="Vector_13" d="M136.472 184.649C136.538 184.583 136.604 184.583 136.67 184.517C136.802 184.451 136.868 184.32 136.934 184.188C136.934 184.122 137 184.056 137 183.991C137 184.714 136.868 185.504 136.67 186.162C136.538 186.491 136.406 186.82 136.208 187.149C136.01 187.412 135.812 187.742 135.548 188.005C135.284 188.268 135.02 188.465 134.69 188.663C135.02 188.465 135.284 188.202 135.548 187.939C136.01 187.281 136.34 186.623 136.406 185.833C136.472 185.373 136.472 185.044 136.472 184.649Z" fill="#325F91"/>
<path id="Vector_14" d="M132.776 59.6193V186.754C132.578 186.886 132.38 186.952 132.182 186.952C131.786 187.018 131.324 187.018 130.928 186.952C130.73 186.886 130.532 186.82 130.334 186.754V59.6193C130.532 59.7509 130.73 59.8167 130.928 59.8167C131.324 59.8825 131.786 59.8825 132.182 59.8167C132.446 59.8167 132.644 59.7509 132.776 59.6193Z" fill="#325F91"/>
<path id="Vector_15" d="M132.776 59.6193C132.578 59.7509 132.38 59.8167 132.182 59.8167C131.786 59.8825 131.324 59.8825 130.929 59.8167C130.731 59.7509 130.533 59.6851 130.335 59.6193C130.335 58.7638 130.203 57.9742 129.939 57.1187C129.411 55.4736 128.553 54.0259 127.431 52.7098C126.837 52.0517 126.177 51.5253 125.451 51.1304C125.451 50.933 125.451 50.7356 125.517 50.5382C125.649 50.1434 125.847 49.7485 126.177 49.4195C126.309 49.2879 126.507 49.1563 126.639 49.0247C127.563 49.5511 128.355 50.2092 129.081 50.9988C130.533 52.5781 131.588 54.4207 132.248 56.4606C132.644 57.5135 132.776 58.5664 132.776 59.6193Z" fill="#325F91"/>
<path id="Vector_16" d="M136.472 57.5135C136.472 56.4607 136.274 55.4078 135.944 54.4207C135.284 52.3808 134.228 50.5382 132.776 48.9589C132.05 48.1692 131.258 47.5112 130.334 46.9847C130.4 46.9189 130.466 46.9189 130.532 46.9189C130.664 46.8531 130.796 46.8531 130.994 46.8531C131.06 46.8531 131.126 46.8531 131.192 46.9189C131.522 47.1164 131.918 47.3796 132.248 47.6428C132.908 48.1692 133.634 48.8931 134.162 49.5511C134.756 50.275 135.218 51.0647 135.68 51.9201C136.076 52.7756 136.406 53.5652 136.604 54.4207C136.802 55.2762 136.934 56 136.934 56.8555V56.9213C136.934 56.9871 136.934 57.0529 136.868 57.1187C136.802 57.2503 136.736 57.3819 136.604 57.4477C136.604 57.4477 136.538 57.4477 136.472 57.5135Z" fill="#325F91"/>
<path id="Vector_17" d="M45.6662 5.19858L125.451 51.1304C126.177 51.5253 126.837 52.0517 127.431 52.7098C128.619 53.96 129.41 55.4736 129.938 57.1187C130.202 57.9742 130.334 58.7638 130.334 59.6193V186.754C130.334 187.347 130.268 187.939 130.004 188.531C129.674 189.255 129.146 189.913 128.355 190.176C127.431 190.44 126.243 190.11 125.385 189.584L45.6662 143.652C44.9403 143.257 44.2804 142.731 43.6864 142.073C42.4986 140.757 41.6407 139.309 41.1127 137.664C40.8488 136.874 40.7168 136.019 40.7168 135.163V8.02819C40.7168 7.43595 40.7828 6.8437 41.0468 6.25146C41.3767 5.5276 41.9706 4.86955 42.6966 4.60633C43.6205 4.34311 44.8083 4.73794 45.6662 5.19858ZM125.451 59.7509C125.451 59.1586 125.451 58.6322 125.319 58.04C125.253 57.7767 125.121 57.5135 124.989 57.2503C124.857 56.9871 124.725 56.7897 124.527 56.5264C124.263 56.2632 123.999 56 123.735 55.7368C123.339 55.4736 122.943 55.2761 122.481 55.0129C121.821 54.6839 121.161 54.2891 120.501 53.8942C119.71 53.4336 118.852 52.973 118.06 52.5123C116.74 51.7885 115.42 50.9988 114.1 50.275C112.45 49.3537 110.801 48.3666 109.217 47.4454C106.577 45.9318 104.003 44.4183 101.364 42.9048C98.0641 40.9965 94.8305 39.1539 91.5309 37.2456C87.5713 35.0082 83.6778 32.705 79.7182 30.4677C75.7587 28.2303 71.8652 25.9271 67.9056 23.6898C64.936 21.9788 62.0323 20.2679 59.0627 18.6228C57.0829 17.5041 55.1031 16.3854 53.1893 15.2009C52.3974 14.7403 51.5395 14.2797 50.7476 13.819C50.0877 13.4242 49.4278 13.0952 48.7679 12.7003C48.3719 12.5029 48.0419 12.2397 47.646 12.0423C47.382 11.9107 47.118 11.7791 46.8541 11.7133C46.7221 11.7133 46.5901 11.6475 46.4581 11.7133C46.3261 11.7133 46.1942 11.7791 46.0622 11.8449C45.9302 11.9107 45.8642 12.0423 45.7982 12.1739C45.7322 12.3055 45.6662 12.4371 45.6662 12.5687C45.6002 12.7661 45.6002 12.9636 45.6002 13.161C45.6002 13.6874 45.6002 14.2139 45.6002 14.7403C45.6002 15.5958 45.6002 16.4512 45.6002 17.3067C45.6002 18.4254 45.6002 19.5441 45.6002 20.7285C45.6002 21.8472 45.6002 22.9659 45.6002 24.1504C45.6002 26.3878 45.6002 28.6909 45.6002 30.9283C45.6002 34.3502 45.6002 37.7062 45.6002 41.1281C45.6002 45.6686 45.6002 50.1434 45.6002 54.6839C45.6002 59.2244 45.6002 63.6992 45.6002 68.2397C45.6002 72.7803 45.6002 77.255 45.6002 81.7955C45.6002 85.5464 45.6002 89.3631 45.6002 93.114C45.6002 96.141 45.6002 99.168 45.6002 102.129C45.6002 104.367 45.6002 106.67 45.6002 108.907C45.6002 111.145 45.6002 113.448 45.6002 115.685C45.6002 117.593 45.6002 119.436 45.6002 121.344C45.6002 122.858 45.6002 124.371 45.6002 125.885C45.6002 127.004 45.6002 128.122 45.6002 129.307C45.6002 130.425 45.6002 131.544 45.6002 132.729C45.6002 133.584 45.6002 134.44 45.6002 135.229C45.6002 135.492 45.6002 135.821 45.6002 136.085C45.6002 136.348 45.6662 136.677 45.7322 136.94C45.7982 137.203 45.9302 137.467 46.0622 137.73C46.1942 137.993 46.3261 138.19 46.5241 138.454C46.7221 138.717 47.0521 138.98 47.316 139.243C47.712 139.506 48.1079 139.704 48.5699 139.967C49.2298 140.296 49.8897 140.691 50.5496 141.086C51.3416 141.546 52.1995 142.007 52.9914 142.468C54.3112 143.192 55.6311 143.981 56.8849 144.705C58.5347 145.626 60.1845 146.613 61.7683 147.535C64.408 149.048 66.9817 150.562 69.6214 152.075C72.921 153.984 76.1547 155.826 79.4543 157.734C83.4138 159.972 87.3074 162.275 91.2669 164.512C95.2264 166.75 99.12 169.053 103.08 171.29C106.049 173.001 108.953 174.712 111.922 176.357C113.902 177.476 115.882 178.595 117.796 179.713C118.588 180.174 119.446 180.635 120.238 181.161C120.897 181.556 121.557 181.885 122.217 182.28C122.547 182.477 122.943 182.675 123.339 182.938C123.603 183.069 123.867 183.201 124.131 183.267C124.263 183.267 124.395 183.333 124.527 183.267C124.659 183.267 124.791 183.201 124.923 183.135C125.055 183.069 125.121 182.938 125.187 182.806C125.253 182.675 125.319 182.543 125.319 182.411C125.385 182.214 125.385 182.016 125.385 181.819C125.385 181.293 125.385 180.766 125.385 180.24C125.385 179.384 125.385 178.529 125.385 177.673C125.385 176.555 125.385 175.436 125.385 174.251C125.385 173.133 125.385 172.014 125.385 170.83C125.385 168.592 125.385 166.289 125.385 164.052C125.385 160.63 125.385 157.274 125.385 153.852C125.385 149.311 125.385 144.837 125.385 140.296C125.385 135.756 125.385 131.281 125.385 126.74C125.385 122.2 125.385 117.725 125.385 113.185C125.385 109.434 125.385 105.617 125.385 101.866C125.385 98.839 125.385 95.812 125.385 92.8508C125.385 90.6134 125.385 88.3102 125.385 86.0729C125.385 83.8355 125.385 81.5323 125.385 79.295C125.385 77.3866 125.385 75.5441 125.385 73.6357C125.385 72.1222 125.385 70.6087 125.385 69.0952C125.385 67.9765 125.385 66.8578 125.385 65.6733C125.385 64.5546 125.385 63.436 125.385 62.2515C125.451 61.4618 125.451 60.6063 125.451 59.7509Z" fill="#325F91"/>
<path id="Vector_18" d="M130.335 46.9189L126.639 49.0247L46.9204 3.09281L50.55 0.987053L130.335 46.9189Z" fill="#325F91"/>
<path id="Vector_19" d="M46.9204 3.09284L126.705 49.0247C126.507 49.1563 126.375 49.2879 126.243 49.4195C125.979 49.7486 125.715 50.0776 125.583 50.5382C125.517 50.7356 125.517 50.933 125.517 51.1305L45.6665 5.1986C45.6665 5.00119 45.6665 4.80377 45.7985 4.60636C45.9305 4.21153 46.1285 3.8167 46.4584 3.48767C46.5244 3.35606 46.7224 3.22445 46.9204 3.09284Z" fill="#325F91"/>
<path id="Vector_20" d="M125.451 189.584C126.309 190.045 127.497 190.44 128.421 190.176C129.147 189.979 129.741 189.321 130.071 188.531C130.335 187.939 130.401 187.347 130.401 186.754C130.599 186.886 130.797 186.952 130.995 186.952C131.39 187.018 131.852 187.018 132.248 186.952C132.446 186.886 132.644 186.82 132.842 186.754C132.842 187.149 132.842 187.544 132.776 187.873C132.644 188.597 132.38 189.321 131.918 189.979C131.654 190.308 131.39 190.571 131.061 190.703C130.797 190.9 130.401 191.032 130.071 191.098C129.741 191.163 129.345 191.229 129.015 191.229C128.685 191.229 128.289 191.229 127.959 191.163C127.299 191.032 126.507 190.703 125.913 190.374C125.847 190.308 125.781 190.308 125.715 190.242C125.649 190.111 125.583 189.979 125.517 189.847C125.451 189.716 125.451 189.65 125.451 189.584Z" fill="#325F91"/>
<path id="Vector_21" d="M125.319 58.1058C125.451 58.6322 125.451 59.2245 125.451 59.8167C125.451 60.6722 125.451 61.5276 125.451 62.3173C125.451 63.436 125.451 64.5547 125.451 65.7391C125.451 66.8578 125.451 67.9765 125.451 69.161C125.451 70.6745 125.451 72.188 125.451 73.7015C125.451 75.6099 125.451 77.4524 125.451 79.3608C125.451 81.5981 125.451 83.9013 125.451 86.1387C125.451 88.376 125.451 90.6792 125.451 92.9166C125.451 95.9436 125.451 98.9706 125.451 101.932C125.451 105.683 125.451 109.434 125.451 113.25C125.451 117.791 125.451 122.266 125.451 126.806C125.451 131.347 125.451 135.821 125.451 140.362C125.451 144.903 125.451 149.377 125.451 153.918C125.451 157.34 125.451 160.696 125.451 164.118C125.451 166.355 125.451 168.658 125.451 170.895C125.451 172.014 125.451 173.133 125.451 174.317C125.451 175.436 125.451 176.555 125.451 177.739C125.451 178.595 125.451 179.45 125.451 180.306C125.451 180.832 125.451 181.358 125.451 181.885C125.451 182.082 125.451 182.28 125.385 182.477C125.385 182.609 125.319 182.74 125.253 182.872C125.187 183.004 125.121 183.069 124.989 183.201C124.857 183.267 124.725 183.333 124.593 183.333C124.461 183.333 124.329 183.333 124.197 183.333C123.933 183.267 123.669 183.135 123.405 183.004C123.009 182.806 122.68 182.543 122.284 182.346C121.624 181.951 120.964 181.622 120.304 181.227C119.512 180.766 118.654 180.306 117.862 179.779C115.882 178.66 113.903 177.542 111.989 176.423C109.019 174.712 106.115 173.001 103.146 171.356C99.1863 169.119 95.2927 166.816 91.3332 164.578C87.3736 162.341 83.4801 160.038 79.5205 157.8C76.2209 155.892 72.9873 154.049 69.6877 152.141C67.048 150.628 64.4743 149.114 61.8346 147.601C60.1848 146.679 58.535 145.692 56.9512 144.771C55.6313 143.981 54.3115 143.257 53.0576 142.534C52.2657 142.073 51.4078 141.612 50.6159 141.152C49.956 140.757 49.2961 140.362 48.6362 140.033C48.2402 139.836 47.7783 139.572 47.3823 139.309C47.0523 139.112 46.7884 138.848 46.5904 138.519C46.3924 138.322 46.2604 138.059 46.1285 137.796C45.9965 137.532 45.8645 137.269 45.7985 137.006C45.7325 136.743 45.6665 136.479 45.6665 136.15C45.6665 135.887 45.6665 135.558 45.6665 135.295C45.6665 134.44 45.6665 133.584 45.6665 132.794C45.6665 131.676 45.6665 130.557 45.6665 129.373C45.6665 128.254 45.6665 127.135 45.6665 125.951C45.6665 124.437 45.6665 122.924 45.6665 121.41C45.6665 119.502 45.6665 117.659 45.6665 115.751C45.6665 113.514 45.6665 111.21 45.6665 108.973C45.6665 106.736 45.6665 104.432 45.6665 102.195C45.6665 99.1681 45.6665 96.141 45.6665 93.1798C45.6665 89.4289 45.6665 85.6122 45.6665 81.8614C45.6665 77.3208 45.6665 72.8461 45.6665 68.3055C45.6665 63.765 45.6665 59.2903 45.6665 54.7497C45.6665 50.2092 45.6665 45.7344 45.6665 41.1939C45.6665 37.772 45.6665 34.416 45.6665 30.9941C45.6665 28.7568 45.6665 26.4536 45.6665 24.2162C45.6665 23.0975 45.6665 21.9789 45.6665 20.7944C45.6665 19.6757 45.6665 18.557 45.6665 17.3725C45.6665 16.517 45.6665 15.6616 45.6665 14.8061C45.6665 14.2797 45.6665 13.7532 45.6665 13.2268C45.6665 13.0294 45.6665 12.832 45.7325 12.6345C45.7325 12.5029 45.7985 12.3713 45.8645 12.2397C45.9305 12.1081 46.0625 12.0423 46.1285 11.9107C46.2604 11.8449 46.3924 11.7791 46.5244 11.7791C46.6564 11.7791 46.7884 11.7791 46.9204 11.7791C47.1843 11.8449 47.4483 11.9765 47.7123 12.1081C48.1082 12.3055 48.4382 12.5029 48.8341 12.7662C49.4941 13.161 50.154 13.49 50.8139 13.8848C51.6058 14.3455 52.4637 14.8061 53.2556 15.2667C55.2354 16.3854 57.2152 17.5041 59.1289 18.6886C62.0986 20.3995 65.0022 22.1105 67.9719 23.7556C71.8654 25.993 75.825 28.2961 79.7845 30.5335C83.7441 32.7709 87.6376 35.074 91.5971 37.3114C94.8968 39.2198 98.1304 41.0623 101.43 42.9706C104.07 44.4841 106.643 45.9977 109.283 47.5112C110.933 48.4324 112.583 49.4195 114.167 50.3408C115.486 51.0646 116.806 51.8543 118.126 52.5782C118.918 53.0388 119.776 53.4994 120.568 53.9601C121.228 54.3549 121.888 54.7497 122.548 55.0787C122.943 55.2762 123.405 55.4736 123.801 55.8026C124.131 56 124.395 56.2632 124.593 56.5923C124.791 56.7897 124.923 57.0529 125.055 57.3161C125.121 57.5135 125.253 57.7767 125.319 58.1058Z" fill="#FDFDFD"/>
<path id="Vector_22" d="M51.4742 0.921275C78.0691 16.2538 104.664 31.5206 131.259 46.8531C131.193 46.7873 131.127 46.7873 131.061 46.7873C130.929 46.7873 130.731 46.7873 130.599 46.8531C130.533 46.8531 130.467 46.9189 130.401 46.9189L50.5503 0.98708C50.6163 0.921275 50.6823 0.921275 50.7483 0.85547C50.8803 0.789665 51.0122 0.789665 51.2102 0.789665C51.3422 0.85547 51.4082 0.85547 51.4742 0.921275Z" fill="#325F91"/>
<path id="Vector_23" d="M50.5496 0.987256L46.854 3.09301C46.5241 2.8956 46.1941 2.76399 45.7981 2.56658C45.0722 2.30336 44.3463 2.17175 43.5544 2.30336C43.1585 2.36916 42.8285 2.43497 42.4985 2.63238C43.6864 1.97433 44.8743 1.25048 46.1281 0.592426C46.1281 0.592426 46.1941 0.592427 46.1941 0.526622C46.5241 0.329207 46.854 0.197597 47.25 0.197597C48.0419 0.0659869 48.7678 0.197597 49.4937 0.460817C49.8897 0.658231 50.2856 0.789841 50.5496 0.987256Z" fill="#325F91"/>
<path id="Vector_24" d="M49.5599 0.460635C48.834 0.197415 48.108 0.065805 47.3161 0.197415C46.9202 0.26322 46.5902 0.329025 46.2603 0.52644C46.5242 0.329025 46.9202 0.197415 47.2501 0.13161C47.5801 0.065805 47.9761 0 48.306 0C48.636 0 49.0319 0 49.3619 0.065805C50.0218 0.197415 50.8137 0.460635 51.4077 0.855464C51.3417 0.789659 51.2757 0.789659 51.2097 0.789659C51.0777 0.789659 50.8797 0.789659 50.7477 0.855464C50.6817 0.855464 50.6157 0.921269 50.5498 0.987074C50.2858 0.789659 49.8898 0.658049 49.5599 0.460635Z" fill="#062140"/>
<path id="Vector_25" d="M45.6665 143.652L125.451 189.584C125.451 189.65 125.451 189.716 125.451 189.781C125.451 189.913 125.517 190.045 125.649 190.176C125.715 190.242 125.781 190.308 125.847 190.308C99.2522 174.975 72.6574 159.709 46.0625 144.376C45.9965 144.31 45.9305 144.31 45.8645 144.244C45.7985 144.113 45.7325 143.981 45.6665 143.85C45.6665 143.85 45.6665 143.784 45.6665 143.652Z" fill="#062140"/>
<path id="Vector_26" d="M41.0474 6.25148C40.8494 6.84373 40.7174 7.43597 40.7174 8.02822C40.6514 8.02822 40.5854 7.96241 40.5194 7.89661C40.3874 7.8308 40.3214 7.69919 40.2554 7.56758C40.2554 7.50178 40.1895 7.43597 40.1895 7.37017C40.1895 6.64631 40.3214 5.79085 40.5194 5.1986C40.6514 4.86958 40.7834 4.54055 40.9814 4.21153C41.1793 3.94831 41.3773 3.61929 41.6413 3.35607C41.9053 3.09285 42.1692 2.89543 42.4992 2.69802C42.8291 2.5006 43.1591 2.36899 43.5551 2.36899C44.347 2.23738 45.0729 2.36899 45.7988 2.63221C46.1288 2.76382 46.5247 2.96124 46.8547 3.15865C46.6567 3.29026 46.5247 3.42187 46.3927 3.55348C46.1288 3.8825 45.8648 4.21153 45.7328 4.67216C45.6668 4.86958 45.6008 5.06699 45.6008 5.26441C44.7429 4.80377 43.5551 4.40894 42.6312 4.67216C41.9712 4.86958 41.3773 5.52763 41.0474 6.25148Z" fill="#062140"/>
<path id="Vector_27" d="M40.7824 8.02823V135.163C40.7165 135.098 40.6506 135.098 40.5847 135.032C40.453 134.966 40.3871 134.834 40.3212 134.703C40.3212 134.637 40.2554 134.571 40.2554 134.505C40.2554 92.1269 40.2554 49.7486 40.2554 7.37018C40.2554 7.43598 40.2554 7.50179 40.3212 7.56759C40.3871 7.6992 40.453 7.83081 40.5847 7.89662C40.6506 7.96242 40.7165 8.02823 40.7824 8.02823Z" fill="#062140"/>
<path id="Vector_28" d="M44.017 142.928C43.3571 142.336 42.8291 141.612 42.3012 140.888C41.7733 140.099 41.3773 139.243 40.9814 138.454C40.6514 137.598 40.3874 136.611 40.2554 135.821C40.1895 135.427 40.1895 134.966 40.1895 134.571C40.1895 134.637 40.1895 134.703 40.2554 134.769C40.3214 134.9 40.3874 135.032 40.5194 135.098C40.5854 135.163 40.6514 135.163 40.7174 135.229C40.7174 136.085 40.8494 136.874 41.1133 137.73C41.6413 139.375 42.4992 140.823 43.687 142.139C44.281 142.797 44.9409 143.323 45.6668 143.718C45.6668 143.784 45.6668 143.85 45.6668 143.915C45.6668 144.047 45.7328 144.179 45.8648 144.31C45.9308 144.376 45.9968 144.442 46.0628 144.442C46.0628 144.442 45.9968 144.442 45.9968 144.376C45.2709 143.981 44.6769 143.586 44.017 142.928Z" fill="#062140"/>
<path id="Vector_29" d="M136.472 184.649C136.472 185.043 136.472 185.372 136.406 185.767C136.274 186.491 136.01 187.215 135.548 187.873C135.284 188.202 135.02 188.465 134.69 188.597C133.436 189.321 132.248 189.979 130.995 190.703C131.325 190.505 131.589 190.242 131.853 189.979C132.314 189.321 132.644 188.663 132.71 187.873C132.776 187.478 132.776 187.083 132.776 186.754L136.472 184.649Z" fill="#325F91"/>
</g>
<g id="Group_9">
<path id="Vector_30" d="M136.999 64.2256C136.999 64.3572 136.933 64.5546 136.801 64.6862C136.735 64.7521 136.603 64.8837 136.472 64.9495V86.2045V87.5864C136.603 87.5206 136.735 87.4548 136.801 87.3231C136.933 87.1915 136.999 86.9941 136.999 86.8625C136.999 79.2949 136.999 71.7932 136.999 64.2256Z" fill="#062140"/>
<path id="Vector_31" d="M136.472 86.1386V87.5206C135.218 88.2444 134.03 88.9025 132.776 89.6263V66.9894C134.03 66.2656 135.218 65.6075 136.472 64.8836V86.1386Z" fill="#325F91"/>
<path id="Vector_32" d="M132.776 67.0552V89.6921C132.644 89.7579 132.446 89.8237 132.248 89.8895C131.786 90.0211 131.192 90.0211 130.73 89.8895C130.598 89.8237 130.4 89.7579 130.334 89.6921V67.0552C130.466 67.121 130.598 67.1868 130.73 67.2526C131.192 67.3842 131.786 67.3842 132.248 67.2526C132.446 67.1868 132.644 67.121 132.776 67.0552Z" fill="#062140"/>
<path id="Vector_33" d="M130.334 67.0552V89.6921C129.477 89.1657 128.619 88.705 127.761 88.1786C127.761 80.611 127.761 73.1093 127.761 65.5417C128.619 66.0681 129.477 66.5288 130.334 67.0552Z" fill="#062140"/>
</g>
<g id="Group_10">
<path id="Vector_34" d="M136.999 88.705C136.999 88.8366 136.933 89.034 136.801 89.1656C136.735 89.2314 136.603 89.363 136.472 89.4288V110.684V112.066C136.603 112 136.735 111.934 136.801 111.803C136.933 111.671 136.999 111.473 136.999 111.342C136.999 103.84 136.999 96.2725 136.999 88.705Z" fill="#062140"/>
<path id="Vector_35" d="M136.472 110.684V112.066C135.218 112.79 134.03 113.448 132.776 114.171V91.5346C134.03 90.8107 135.218 90.1527 136.472 89.4288V110.684Z" fill="#325F91"/>
<path id="Vector_36" d="M132.776 91.5346V114.172C132.644 114.237 132.446 114.303 132.248 114.369C131.786 114.501 131.192 114.501 130.73 114.369C130.598 114.303 130.4 114.237 130.334 114.172V91.5346C130.466 91.6004 130.598 91.6662 130.73 91.732C131.192 91.8636 131.786 91.8636 132.248 91.732C132.446 91.732 132.644 91.6662 132.776 91.5346Z" fill="#062140"/>
<path id="Vector_37" d="M130.334 91.5346V114.172C129.477 113.645 128.619 113.184 127.761 112.658C127.761 105.09 127.761 97.5887 127.761 90.0211C128.619 90.5475 129.477 91.074 130.334 91.5346Z" fill="#062140"/>
</g>
<g id="Group_11">
<path id="Vector_38" d="M136.999 113.25C136.999 113.382 136.933 113.579 136.801 113.711C136.735 113.777 136.603 113.908 136.472 113.974V135.229V136.611C136.603 136.545 136.735 136.479 136.801 136.348C136.933 136.216 136.999 136.019 136.999 135.887C136.999 128.385 136.999 120.818 136.999 113.25Z" fill="#062140"/>
<path id="Vector_39" d="M136.472 135.229V136.611C135.218 137.335 134.03 137.993 132.776 138.717V116.08C134.03 115.356 135.218 114.698 136.472 113.974V135.229Z" fill="#325F91"/>
<path id="Vector_40" d="M132.776 116.08V138.717C132.644 138.783 132.446 138.848 132.248 138.914C131.786 139.046 131.192 139.046 130.73 138.914C130.598 138.848 130.4 138.783 130.334 138.717V116.08C130.466 116.146 130.598 116.211 130.73 116.277C131.192 116.409 131.786 116.409 132.248 116.277C132.446 116.277 132.644 116.211 132.776 116.08Z" fill="#062140"/>
<path id="Vector_41" d="M130.334 116.08V138.717C129.477 138.19 128.619 137.73 127.761 137.203C127.761 129.636 127.761 122.134 127.761 114.566C128.619 115.093 129.477 115.619 130.334 116.08Z" fill="#062140"/>
</g>
<g id="Group_12">
<path id="Vector_42" d="M136.999 137.796C136.999 137.927 136.933 138.125 136.801 138.256C136.735 138.322 136.603 138.454 136.472 138.519V159.774V161.156C136.603 161.091 136.735 161.025 136.801 160.893C136.933 160.762 136.999 160.564 136.999 160.433C136.999 152.931 136.999 145.363 136.999 137.796Z" fill="#062140"/>
<path id="Vector_43" d="M136.472 159.774V161.156C135.218 161.88 134.03 162.538 132.776 163.262V140.625C134.03 139.901 135.218 139.243 136.472 138.519V159.774Z" fill="#325F91"/>
<path id="Vector_44" d="M132.776 140.625V163.262C132.644 163.328 132.446 163.394 132.248 163.46C131.786 163.591 131.192 163.591 130.73 163.46C130.598 163.394 130.4 163.328 130.334 163.262V140.625C130.466 140.691 130.598 140.757 130.73 140.823C131.192 140.954 131.786 140.954 132.248 140.823C132.446 140.823 132.644 140.757 132.776 140.625Z" fill="#062140"/>
<path id="Vector_45" d="M130.334 140.625V163.262C129.477 162.736 128.619 162.275 127.761 161.749C127.761 154.181 127.761 146.679 127.761 139.112C128.619 139.638 129.477 140.165 130.334 140.625Z" fill="#062140"/>
</g>
</g>
<g id="Group_13">
<path id="Vector_46" d="M2.77162 171.619C2.63964 171.685 2.50765 171.817 2.37567 171.948C2.1117 172.212 1.91372 172.541 1.84773 172.87C1.78174 173.067 1.78174 173.199 1.78174 173.396V178.266C1.78174 178.331 1.78174 178.397 1.78174 178.463C1.78174 178.595 1.84773 178.726 1.91372 178.792C1.97972 178.858 1.97972 178.858 2.04571 178.924C20.3916 189.452 38.6714 200.047 57.0173 210.576L56.9513 210.51C56.8193 210.378 56.7533 210.115 56.7533 209.918V205.048C56.7533 204.851 56.7533 204.719 56.8193 204.522C56.9513 204.193 57.0833 203.864 57.3472 203.6C57.4792 203.469 57.6112 203.337 57.7432 203.271L2.77162 171.619Z" fill="#294C73"/>
<path id="Vector_47" d="M2.77148 171.619L57.7431 203.271L98.9882 179.582L44.0167 147.929L2.77148 171.619Z" fill="#3F6D9F"/>
<path id="Vector_48" d="M97.734 181.029V186.162L57.3467 209.391V204.719V204.653V204.588V204.522V204.456C57.3467 204.456 57.3467 204.39 57.4127 204.39C57.4127 204.39 57.4127 204.324 57.4787 204.324C57.4787 204.324 57.4787 204.259 57.5447 204.259C57.5447 204.259 57.5447 204.193 57.6106 204.193C57.6106 204.193 57.6106 204.127 57.6766 204.127C57.6766 204.127 57.7426 204.127 57.7426 204.061C57.7426 204.061 57.8086 204.061 57.8086 203.995H57.8746L97.734 181.029Z" fill="#E6E9FF"/>
<path id="Vector_49" d="M57.3467 209.589C57.3467 209.655 57.3467 209.655 57.3467 209.589C57.3467 209.655 57.3467 209.655 57.3467 209.655V209.72C57.3467 209.72 57.3467 209.72 57.3467 209.786C57.3467 209.786 57.3467 209.786 57.3467 209.852C57.3467 209.852 57.3467 209.852 57.3467 209.918C57.3467 209.918 57.3467 209.918 57.4127 209.918C57.4127 209.918 57.4127 209.918 57.4787 209.918C57.4787 209.918 57.4787 209.918 57.5447 209.918C57.5447 209.918 57.5447 209.918 57.6106 209.918C57.6106 209.918 57.6106 209.918 57.6766 209.918H57.7426H57.8086L99.0538 186.162L97.7999 185.438C97.7999 185.702 97.7999 185.899 97.7999 186.162L57.4127 209.391V209.589H57.3467Z" fill="#084DA1"/>
<path id="Vector_50" d="M57.7433 209.852C57.6773 209.918 57.6773 209.918 57.6113 209.918C57.6113 209.918 57.6113 209.918 57.5453 209.918H57.4793C57.4793 209.918 57.4793 209.918 57.4133 209.918C57.4133 209.918 57.4133 209.918 57.3473 209.918C57.3473 209.918 57.3474 209.918 57.2814 209.918C57.2814 209.918 57.2814 209.918 57.2814 209.852V209.786C57.2814 209.786 57.2814 209.786 57.2814 209.72V209.655V209.391V204.785C57.2814 204.785 57.2814 204.785 57.2814 204.719V204.653V204.588V204.522V204.456V204.39C57.2814 204.39 57.2814 204.324 57.3473 204.324C57.3473 204.324 57.3473 204.259 57.4133 204.259C57.4133 204.259 57.4133 204.193 57.4793 204.193C57.4793 204.193 57.4793 204.193 57.5453 204.127C57.5453 204.127 57.5453 204.127 57.6113 204.061C57.6113 204.061 57.6773 204.061 57.6773 203.995C57.6773 203.995 57.6773 203.995 57.7433 203.995L97.7346 180.964L98.9885 180.24V179.516L57.7433 203.271C57.6113 203.337 57.4793 203.469 57.3473 203.6C57.0834 203.864 56.8854 204.193 56.8194 204.522C56.7534 204.719 56.7534 204.851 56.7534 205.048V209.918C56.7534 210.115 56.8194 210.378 56.9514 210.51L57.0174 210.576C57.1494 210.642 57.2814 210.642 57.4133 210.642C57.5453 210.642 57.6773 210.576 57.8093 210.51L98.9885 186.886V186.162L57.7433 209.852Z" fill="#0F5EBF"/>
<path id="Vector_51" opacity="0.35" d="M97.734 181.029V182.345L57.3467 205.575V204.653V204.588V204.522V204.456V204.39C57.3467 204.39 57.3467 204.324 57.4127 204.324C57.4127 204.324 57.4127 204.259 57.4787 204.259C57.4787 204.259 57.4787 204.193 57.5447 204.193C57.5447 204.193 57.5447 204.127 57.6106 204.127C57.6106 204.127 57.6106 204.061 57.6766 204.061C57.6766 204.061 57.7426 204.061 57.7426 203.995C57.7426 203.995 57.8086 203.995 57.8086 203.929H57.8746L97.734 181.029Z" fill="#ADB8E8"/>
<path id="Vector_52" opacity="0.35" d="M3.89307 171.356L58.5347 202.811L98.526 179.845L43.8844 148.324L3.89307 171.356Z" fill="#E6ECF3"/>
</g>
<g id="Group_14">
<path id="Vector_53" d="M7.78725 159.709C7.65526 159.774 7.52328 159.906 7.39129 160.038C7.12732 160.301 6.99534 160.63 6.86336 160.959C6.79736 161.156 6.79736 161.288 6.79736 161.485V171.224C6.79736 171.29 6.79736 171.356 6.79736 171.422C6.79736 171.553 6.86336 171.685 6.92935 171.751C6.99534 171.817 6.99534 171.817 7.06133 171.883C26.5951 183.135 42.1692 192.085 61.7029 203.337C61.571 203.271 61.505 203.14 61.439 203.074C61.373 202.942 61.373 202.811 61.373 202.679V192.94C61.373 192.743 61.373 192.611 61.439 192.414C61.571 192.085 61.7029 191.756 61.9669 191.492C62.0989 191.361 62.2309 191.229 62.3629 191.163L7.78725 159.709Z" fill="#395322"/>
<path id="Vector_54" d="M7.78711 159.709L62.4287 191.163L102.42 168.197L47.7784 136.677L7.78711 159.709Z" fill="#5C7644"/>
<path id="Vector_55" d="M61.373 193.006V202.745C61.373 202.877 61.373 203.008 61.439 203.14C61.505 203.271 61.571 203.337 61.703 203.403C61.769 203.403 61.769 203.469 61.835 203.469C62.033 203.535 62.2969 203.469 62.4949 203.337L102.486 180.306V179.648L62.4949 202.679H62.4289H62.3629H62.2969H62.2309C62.2309 202.679 62.2309 202.679 62.165 202.679C62.099 202.679 62.165 202.679 62.099 202.679C62.099 202.679 62.099 202.679 62.033 202.679C62.033 202.679 62.033 202.679 62.033 202.613C62.033 202.613 62.033 202.613 62.033 202.548V202.482V202.416V202.153V192.677V192.611V192.545V192.479V192.414V192.348C62.033 192.348 62.033 192.282 62.099 192.282C62.099 192.282 62.099 192.216 62.165 192.216C62.165 192.216 62.165 192.15 62.2309 192.15C62.2309 192.15 62.2309 192.085 62.2969 192.085C62.2969 192.085 62.2969 192.019 62.3629 192.019L62.4289 191.953C62.4289 191.953 62.4949 191.953 62.4949 191.887L101.166 169.579L102.42 168.856V168.132L62.4289 191.163C62.2969 191.229 62.165 191.361 62.033 191.492C61.769 191.756 61.571 192.085 61.505 192.414C61.439 192.677 61.373 192.808 61.373 193.006Z" fill="#84BF4E"/>
<path id="Vector_56" d="M101.166 169.645V179.648C88.0337 187.215 75.1652 194.651 62.0327 202.153V192.611V192.545V192.479V192.414C62.0327 192.414 62.0327 192.348 62.0987 192.348C62.0987 192.348 62.0987 192.282 62.1647 192.282C62.1647 192.282 62.1647 192.216 62.2307 192.216C62.2307 192.216 62.2307 192.15 62.2967 192.15C62.2967 192.15 62.2967 192.085 62.3627 192.085L62.4287 192.019L62.4947 191.953C62.4947 191.953 62.5607 191.953 62.5607 191.887C62.5607 191.887 62.5607 191.887 62.6266 191.887L101.166 169.645Z" fill="#E6E9FF"/>
<path id="Vector_57" opacity="0.35" d="M101.166 169.645V170.895C88.0997 178.397 75.1652 185.899 62.0327 193.401V192.611V192.545V192.479V192.414C62.0327 192.414 62.0327 192.348 62.0987 192.348C62.0987 192.348 62.0987 192.282 62.1647 192.282C62.1647 192.282 62.1647 192.216 62.2307 192.216C62.2307 192.216 62.2307 192.15 62.2967 192.15C62.2967 192.15 62.2967 192.085 62.3627 192.085L62.4287 192.019L62.4947 191.953C62.4947 191.953 62.5607 191.953 62.5607 191.887C62.5607 191.887 62.5607 191.887 62.6266 191.887L101.166 169.645Z" fill="#ADB8E8"/>
<path id="Vector_58" d="M62.0327 202.416C62.0327 202.482 62.0327 202.482 62.0327 202.482V202.548C62.0327 202.548 62.0327 202.548 62.0327 202.613C62.0327 202.613 62.0327 202.613 62.0327 202.679C62.0327 202.679 62.0327 202.679 62.0987 202.679C62.0987 202.679 62.0987 202.679 62.1647 202.679C62.2307 202.679 62.1647 202.679 62.2307 202.679C62.2307 202.679 62.2307 202.679 62.2967 202.679C62.2967 202.679 62.2967 202.679 62.3627 202.679H62.4287H62.4947L102.486 179.648L101.232 178.924C101.232 179.187 101.232 179.384 101.232 179.648C88.0997 187.215 75.2312 194.651 62.0987 202.153V202.416H62.0327Z" fill="#B9DB9A"/>
</g>
<g id="Group_15">
<g id="Group_16">
<path id="Vector_59" d="M52.3319 184.188L48.9003 223.737L45.4688 225.777L48.9003 186.162L52.3319 184.188Z" fill="#F3E484"/>
<path id="Vector_60" d="M52.332 184.188L48.9004 186.162L47.1846 185.175L50.6162 183.201L52.332 184.188Z" fill="#E2B45F"/>
<path id="Vector_61" d="M48.9003 186.162L45.4687 225.777L43.7529 224.79L44.4788 216.432L45.0068 210.576L45.3367 206.035L45.5347 203.929L45.8647 200.113L46.2606 195.572L46.4586 193.532L46.7886 189.716L47.1845 185.175L48.9003 186.162Z" fill="#D7943C"/>
<path id="Vector_62" d="M46.4585 193.532L46.2606 195.572L33.92 188.465L32.5342 187.676L30.8184 186.689L31.0163 184.583L46.4585 193.532Z" fill="#D7943C"/>
<path id="Vector_63" d="M45.8649 200.113L45.535 203.929L30.0928 194.98L33.5244 193.006L45.8649 200.113Z" fill="#E2B45F"/>
<path id="Vector_64" d="M45.5352 203.929L45.3372 206.035L32.9967 198.928L31.6108 198.073L29.895 197.086L30.093 194.98L45.5352 203.929Z" fill="#D7943C"/>
<path id="Vector_65" d="M45.0066 210.576L44.4787 216.432L44.6107 214.327L29.1685 205.443L32.6001 203.469L45.0066 210.576Z" fill="#E2B45F"/>
<path id="Vector_66" d="M44.6104 214.327L44.4784 216.432L32.1378 209.326L30.686 208.536L28.9702 207.549L29.1682 205.443L44.6104 214.327Z" fill="#D7943C"/>
<path id="Vector_67" d="M35.1741 174.251L34.4482 182.609L31.0166 184.583L31.6765 176.226L35.1741 174.251Z" fill="#F3E484"/>
<path id="Vector_68" d="M33.524 173.33L35.1738 174.251L31.6762 176.226L30.0924 175.304L29.9604 175.239L33.458 173.264L33.524 173.33Z" fill="#E2B45F"/>
<path id="Vector_69" d="M32.996 198.928L32.6001 203.469L29.1685 205.443L29.8944 197.086L31.6102 198.073L32.996 198.928Z" fill="#F3E484"/>
<path id="Vector_70" d="M30.6863 208.536L32.1382 209.326L31.7422 213.866L28.2446 215.84L28.9705 207.549L30.6863 208.536Z" fill="#F3E484"/>
<path id="Vector_71" d="M30.8187 186.689L32.5345 187.676L33.9203 188.465L33.5244 193.006L30.0928 194.98L31.0167 184.583L30.8187 186.689Z" fill="#F3E484"/>
<path id="Vector_72" d="M30.0924 175.304L31.6762 176.226L31.0163 184.583L30.0924 194.98L29.8944 197.086L29.1685 205.443L28.9705 207.549L28.2446 215.84L26.5288 214.853L29.9604 175.239L30.0924 175.304Z" fill="#D7943C"/>
</g>
<g id="Group_17">
<path id="Vector_73" d="M48.9004 186.162C50.0223 185.438 51.2101 184.78 52.332 184.188C51.2101 184.846 50.0883 185.57 48.9004 186.162Z" fill="white"/>
</g>
<g id="Group_18">
<path id="Vector_74" d="M31.6768 176.291C32.7986 175.568 33.9865 174.909 35.1084 174.317C34.0525 174.975 32.8646 175.633 31.6768 176.291Z" fill="white"/>
</g>
<path id="Vector_75" d="M46.7888 189.716L46.4588 193.532L31.0166 184.583L34.4482 182.609L46.7888 189.716Z" fill="#E2B45F"/>
</g>
<g id="Group_19">
<path id="Vector_76" d="M62.4287 191.163C69.0279 187.215 75.6932 183.398 82.3584 179.516C89.0236 175.699 95.6888 171.883 102.42 168.132C95.8208 172.08 89.1556 175.897 82.4904 179.779C75.8251 183.596 69.1599 187.478 62.4287 191.163Z" fill="#F7F8FB"/>
</g>
<g id="Group_20">
<path id="Vector_77" d="M62.4287 202.613C69.0279 198.665 75.6932 194.848 82.3584 190.966C89.0236 187.149 95.6888 183.333 102.42 179.582C95.8208 183.53 89.1556 187.347 82.4904 191.229C75.8251 195.046 69.1599 198.928 62.4287 202.613Z" fill="#F7F8FB"/>
</g>
</g>
<g id="Group_21">
<path id="Vector_78" d="M57.7437 209.852C64.5409 205.772 71.4041 201.824 78.2673 197.875C85.1964 193.993 92.0596 189.979 98.9888 186.162C92.1916 190.242 85.2624 194.19 78.4652 198.139C71.536 202.021 64.7388 206.035 57.7437 209.852Z" fill="#116BDB"/>
</g>
</g>
<g id="Group_22">
<path id="Vector_79" opacity="0.3" d="M39.7278 157.734C34.3824 160.827 34.3824 165.828 39.7278 168.921C45.0732 172.014 53.8501 172.014 59.1955 168.921C64.5409 165.828 64.5409 160.827 59.1955 157.734C53.8501 154.642 45.1391 154.642 39.7278 157.734Z" fill="#C3DFAA"/>
<g id="Group_23">
<path id="Vector_80" d="M32.7982 113.645C32.7982 113.645 32.2042 117.593 32.4022 118.186C32.6662 118.778 33.92 121.937 34.8439 122.463C35.7678 122.989 37.2197 122.924 37.2197 122.924L38.5395 121.739V114.237L35.8998 111.868L33.3921 112.658L32.7982 113.645Z" fill="#F2C1AE"/>
<path id="Vector_81" d="M42.2351 72.7145C42.3011 73.8332 41.9711 74.6228 41.9051 74.7544L49.8902 79.4924C49.8902 79.4924 50.0882 75.9389 50.2201 74.8202C50.2861 74.4254 50.8141 74.0964 50.8141 74.0964C50.8141 74.0964 52.0679 74.1622 52.2659 74.0964C52.2659 74.0964 54.5096 70.7403 54.7736 66.0024C54.7736 65.7392 54.7736 65.4101 54.7736 65.1469C54.6416 60.8696 51.9359 58.1058 47.1185 58.1058C42.763 58.1058 40.9152 62.3173 40.3213 65.1469C39.7274 67.9765 41.1792 69.3584 41.8391 71.2668C42.1031 71.7274 42.2351 72.2538 42.2351 72.7145Z" fill="#FFD0C5"/>
<path id="Vector_82" d="M36.8237 157.603C36.8237 157.603 36.6257 160.432 36.8897 162.472C36.8897 162.472 37.6156 164.447 40.0573 163.723C40.0573 163.723 42.1691 162.209 42.3011 162.078C42.3671 161.946 42.4991 160.959 42.4991 160.959C42.4991 160.959 43.4229 160.761 45.3367 160.235C47.2505 159.709 50.4841 157.537 50.2861 157.076C50.1542 156.682 48.7683 155.694 47.9104 155.694C47.0525 155.694 41.3112 155.694 41.3112 155.694L36.8237 157.603Z" fill="#030F33"/>
<path id="Vector_83" d="M62.6924 167.079C62.7584 167.276 61.9665 168.921 59.8547 170.106C58.4029 170.895 56.7531 171.159 55.1033 170.961C54.3114 170.895 53.1895 170.83 52.1336 170.961C52.1336 170.961 52.1336 171.619 52.0676 171.751C52.0016 171.883 47.9101 172.672 46.6563 171.685C45.3364 170.632 46.3263 165.894 46.7882 165.697C47.8441 165.17 51.7377 164.447 52.7275 165.17C53.7834 165.96 58.8648 166.552 61.1746 166.157C63.3523 165.828 62.6924 167.079 62.6924 167.079Z" fill="#030F33"/>
<path id="Vector_84" d="M46.1946 114.961L38.6055 117.264C38.6055 117.264 37.8136 119.239 37.8136 125.424C37.8136 129.833 37.2857 134.242 36.4278 138.519C36.1638 139.835 35.9658 141.152 36.0318 142.402C36.0978 146.482 36.0318 157.142 36.0318 157.142C36.0318 157.734 36.4278 158.327 37.2197 158.787C38.8035 159.709 41.4432 159.709 43.027 158.787C43.8189 158.327 44.2149 157.734 44.2149 157.142C44.2149 157.142 42.3671 144.902 46.1946 133.518C50.0222 122.002 46.1946 114.961 46.1946 114.961Z" fill="#CB9B4C"/>
<path id="Vector_85" d="M56.4232 116.87L45.1385 122.924C45.0725 123.055 46.0624 135.756 46.1284 139.177C46.1944 142.599 44.5446 144.771 45.1385 151.351C45.7324 157.932 46.1284 165.96 46.1284 165.763C46.1284 166.355 46.5243 166.947 47.3162 167.408C48.9001 168.329 51.5398 168.329 53.1236 167.408C53.9155 166.947 54.3114 166.355 54.3114 165.763C54.3114 165.763 52.6616 147.271 54.9054 139.046C57.2151 130.82 58.403 125.161 56.4232 116.87Z" fill="#E4B662"/>
<path id="Vector_86" d="M37.3514 75.5441C37.3514 75.5441 33.5239 75.9389 33.3259 80.4136C33.0619 85.02 32.27 113.382 32.27 113.382C32.27 113.777 32.534 114.172 33.0619 114.501C34.1178 115.093 35.8336 115.093 36.8895 114.501C37.4174 114.172 37.6814 113.777 37.6814 113.382C37.6814 113.382 38.6713 89.8896 38.6713 84.9542C38.6713 79.953 37.3514 75.5441 37.3514 75.5441Z" fill="#517398"/>
<path id="Vector_87" opacity="0.15" d="M37.3514 75.5441C37.3514 75.5441 33.5239 75.9389 33.3259 80.4136C33.0619 85.02 32.27 113.382 32.27 113.382C32.27 113.777 32.534 114.172 33.0619 114.501C34.1178 115.093 35.8336 115.093 36.8895 114.501C37.4174 114.172 37.6814 113.777 37.6814 113.382C37.6814 113.382 38.6713 89.8896 38.6713 84.9542C38.6713 79.953 37.3514 75.5441 37.3514 75.5441Z" fill="#D9D9D9"/>
<path id="Vector_88" d="M35.1077 86.5335C35.8336 91.2715 37.5494 105.091 37.2855 108.052C37.0215 110.881 37.3515 117.725 37.3515 118.12L37.4174 118.778C37.4834 120.226 38.4073 121.673 40.3211 122.726C43.7527 124.7 49.0981 124.964 52.9916 123.384C53.5196 123.187 53.9815 122.989 54.4435 122.726C55.3014 122.2 56.0273 121.673 56.4892 121.015C56.6872 120.752 56.8852 120.423 57.0172 120.16C57.0172 120.094 57.0831 120.028 57.0831 120.028C57.1491 119.897 57.2151 119.699 57.2151 119.568C57.2151 119.502 57.2811 119.436 57.2811 119.37C57.3471 119.173 57.3471 118.975 57.3471 118.778C57.3471 118.778 57.6771 108.578 57.941 99.7603C58.073 94.5617 58.205 89.8238 58.205 87.9154C58.205 84.4936 52.3317 80.3478 52.3317 80.3478L49.1641 78.9659L40.4531 75.1493C40.4531 75.1493 37.0215 75.2151 35.7016 76.0047C34.3818 76.8602 34.5798 83.3749 35.1077 86.5335Z" fill="#314861"/>
<path id="Vector_89" d="M39.5955 63.5676C39.8594 68.1739 42.2351 72.3854 42.2351 72.3854C42.2351 72.3854 44.4129 73.3725 46.5906 73.2409C46.7226 73.2409 46.8546 73.2409 46.9866 73.1751C47.5145 73.1093 47.9765 72.9777 48.4384 72.7803C48.7024 72.6487 48.9664 72.5171 49.2303 72.3196C49.4943 71.53 50.4182 68.4371 50.2862 67.9765C49.9562 66.5946 50.1542 65.4101 51.804 65.2785C53.4538 65.1469 52.7939 68.1081 52.7939 68.1081L54.1798 67.9765L54.3117 66.1998C54.3777 65.1469 54.9057 64.1598 55.5656 63.3702C55.6976 63.2386 55.6976 63.1069 55.7636 62.7779C55.6976 62.1199 55.4996 59.9483 54.9717 59.0928C54.9717 59.0928 54.9717 59.027 54.9057 59.027C53.9158 57.4477 51.936 55.8684 47.7125 55.8026C45.7327 55.8026 44.2809 56.0658 43.159 56.5923C39.0675 58.2374 39.5955 62.5147 39.5955 63.5676Z" fill="#030F33"/>
<path id="Vector_90" d="M41.5752 73.6357C41.5752 73.6357 41.9052 73.1093 41.9711 73.1093C42.0371 73.1093 50.0882 75.4783 50.8801 79.1633L42.4991 74.886L41.5752 73.6357Z" fill="#F7F8FB"/>
</g>
<path id="Vector_91" d="M45.0068 124.569C46.4587 124.635 47.9765 124.569 49.4283 124.371C50.8802 124.174 52.332 123.845 53.6518 123.253C52.266 123.779 50.8142 124.108 49.3623 124.24C47.9105 124.371 46.4587 124.371 45.0068 124.306V124.569Z" fill="#003684"/>
<path id="Vector_92" d="M62.4945 124.371C62.6265 124.503 63.6164 126.214 63.4184 128.451C63.2864 130.689 62.4945 132.071 62.4945 132.071C62.4945 132.071 60.3168 133.387 59.9868 133.189C59.6568 132.992 58.271 132.663 58.271 132.663V131.873C58.271 131.873 59.4589 131.61 59.7228 130.689C59.9868 129.767 58.535 127.333 59.1949 125.095C59.7888 122.66 62.4945 124.371 62.4945 124.371Z" fill="#FFDDD2"/>
<g id="Group_24">
<path id="Vector_93" d="M50.2861 93.114C50.2861 93.114 50.3521 93.5746 50.5501 94.3643C51.144 97.3913 52.5299 105.354 54.0477 110.157C55.1036 113.645 56.3574 117.199 57.2153 119.568C57.8093 121.213 58.2052 124.174 58.2712 124.306C58.3372 124.635 58.6012 124.898 58.9971 125.161C60.053 125.753 61.7688 125.753 62.8247 125.161C63.3526 124.832 63.6166 124.437 63.6166 124.042C63.6166 123.976 63.6166 123.845 63.5506 123.779C63.2206 121.871 60.5809 109.368 59.723 104.432C58.7991 99.168 58.2052 88.4418 58.2052 88.4418C58.2052 88.2444 58.2052 88.047 58.1392 87.8496C58.0072 86.9941 57.5453 86.4019 56.8854 86.2045C56.1594 86.007 55.2356 86.1387 54.1797 86.7309C52.0679 88.1128 50.2861 90.9424 50.2861 93.114Z" fill="#517398"/>
</g>
<path id="Vector_94" d="M40.3211 75.1492C40.3211 75.1492 41.179 73.4383 41.3769 73.4383C41.5749 73.4383 44.8745 74.228 47.0523 75.8073C51.0118 78.6369 52.1997 80.3478 52.1997 80.3478C52.1997 80.3478 46.1284 79.2291 42.8948 77.8472C39.6611 76.5311 40.3211 75.1492 40.3211 75.1492Z" fill="#8EACCE"/>
</g>
</g>
</svg>
