<svg width="40" height="40" viewBox="0 0 40 40" fill="none" xmlns="http://www.w3.org/2000/svg">
<g id="person_book_FILL0_wght200_GRAD0_opsz24 1">
<path id="Vector" d="M20 28.9744C18.1502 28.9744 16.3519 29.2602 14.6051 29.8318C12.8583 30.4033 11.2225 31.2821 9.69781 32.468C9.74359 32.7158 9.86949 32.9188 10.0755 33.0769C10.2816 33.235 10.5105 33.3205 10.7624 33.3333H29.2033C29.4551 33.3205 29.684 33.235 29.8901 33.0769C30.0961 32.9188 30.2221 32.7158 30.2679 32.468C28.7889 31.2821 27.1761 30.4033 25.4292 29.8318C23.6825 29.2602 21.8727 28.9744 20 28.9744ZM20 27.3077C22.0536 27.3077 23.9732 27.5994 25.7589 28.1827C27.5446 28.766 29.1964 29.5855 30.7143 30.641V7.69229C30.7143 7.4359 30.5998 7.20086 30.3709 6.98717C30.1419 6.7735 29.8901 6.66667 29.6154 6.66667H10.3846C10.1099 6.66667 9.85807 6.7735 9.62911 6.98717C9.40018 7.20086 9.28571 7.4359 9.28571 7.69229V30.641C10.8036 29.5855 12.4554 28.766 14.2411 28.1827C16.0268 27.5994 17.9464 27.3077 20 27.3077ZM20 21.7949C19.027 21.7949 18.1885 21.4663 17.4846 20.8093C16.7806 20.1522 16.4286 19.3697 16.4286 18.4615C16.4286 17.5534 16.7806 16.7708 17.4846 16.1138C18.1885 15.4567 19.027 15.1282 20 15.1282C20.973 15.1282 21.8115 15.4567 22.5154 16.1138C23.2194 16.7708 23.5714 17.5534 23.5714 18.4615C23.5714 19.3697 23.2194 20.1522 22.5154 20.8093C21.8115 21.4663 20.973 21.7949 20 21.7949ZM10.3846 35C9.56272 35 8.87649 34.7431 8.32589 34.2292C7.7753 33.7153 7.5 33.0748 7.5 32.3077V7.69229C7.5 6.92521 7.7753 6.28472 8.32589 5.77083C8.87649 5.25694 9.56272 5 10.3846 5H29.6154C30.4373 5 31.1235 5.25694 31.6741 5.77083C32.2247 6.28472 32.5 6.92521 32.5 7.69229V32.3077C32.5 33.0748 32.2247 33.7153 31.6741 34.2292C31.1235 34.7431 30.4373 35 29.6154 35H10.3846ZM20 23.4615C21.4973 23.4615 22.7644 22.9776 23.8015 22.0096C24.8386 21.0417 25.3571 19.859 25.3571 18.4615C25.3571 17.0641 24.8386 15.8814 23.8015 14.9135C22.7644 13.9455 21.4973 13.4615 20 13.4615C18.5027 13.4615 17.2356 13.9455 16.1985 14.9135C15.1614 15.8814 14.6429 17.0641 14.6429 18.4615C14.6429 19.859 15.1614 21.0417 16.1985 22.0096C17.2356 22.9776 18.5027 23.4615 20 23.4615Z" fill="#6792C1"/>
</g>
</svg>
