<svg width="56" height="56" viewBox="0 0 56 56" fill="none" xmlns="http://www.w3.org/2000/svg">
<g id="fa6-solid:book-open-reader" clip-path="url(#clip0_633_6083)">
<path id="Vector" d="M17.5 10.5C17.5 7.71523 18.6062 5.04451 20.5754 3.07538C22.5445 1.10625 25.2152 0 28 0C30.7848 0 33.4555 1.10625 35.4246 3.07538C37.3938 5.04451 38.5 7.71523 38.5 10.5C38.5 13.2848 37.3938 15.9555 35.4246 17.9246C33.4555 19.8938 30.7848 21 28 21C25.2152 21 22.5445 19.8938 20.5754 17.9246C18.6062 15.9555 17.5 13.2848 17.5 10.5ZM26.25 27.125V56L20.9563 53.3531C18.6703 52.2156 16.1984 51.4938 13.65 51.2422L3.15 50.1922C1.36719 50.0062 0 48.5078 0 46.7031V24.5C0 22.5641 1.56406 21 3.5 21H6.81406C13.7703 21 20.5516 23.1437 26.25 27.125ZM29.75 56V27.125C35.4484 23.1437 42.2297 21 49.1859 21H52.5C54.4359 21 56 22.5641 56 24.5V46.7031C56 48.4969 54.6328 50.0062 52.85 50.1812L42.35 51.2313C39.8125 51.4828 37.3297 52.2047 35.0438 53.3422L29.75 56Z" fill="#FEFEFE"/>
</g>
<defs>
<clipPath id="clip0_633_6083">
<rect width="56" height="56" fill="white"/>
</clipPath>
</defs>
</svg>
