<svg width="36" height="36" viewBox="0 0 36 36" fill="none" xmlns="http://www.w3.org/2000/svg">
<g id="9499571491620749083 1">
<path id="Vector" d="M26.4 3.60001H12C13.9886 5.58757 13.9876 8.81245 12 10.8H26.4C28.3876 10.8 30 9.18865 30 7.20001C30 5.21137 28.3876 3.60001 26.4 3.60001Z" fill="#FEFEFE"/>
<path id="Vector_2" d="M25.8002 24.0001H18.6002V29.3123L14.4001 27.212L10.2 29.3123V24.0001H3.6001C5.9203 26.3189 5.91778 30.0809 3.6001 32.4H25.8002C28.119 32.4 30 30.5201 30 28.1999C30 25.8797 28.119 24.0001 25.8002 24.0001Z" fill="#FEFEFE"/>
<path id="Vector_3" d="M32.3999 13.2001H10.1998C7.881 13.2001 6 15.0797 6 17.3999C6 19.7201 7.881 21.6 10.1998 21.6V16.8001H11.9998V26.3999L14.3999 25.2L16.8 26.3999V16.8001H18.6V21.6H32.3999C30.0797 19.2809 30.0822 15.5189 32.3999 13.2001Z" fill="#FEFEFE"/>
</g>
</svg>
