<svg width="36" height="36" viewBox="0 0 36 36" fill="none" xmlns="http://www.w3.org/2000/svg">
<g id="solar:camera-bold">
<path id="Vector" fill-rule="evenodd" clip-rule="evenodd" d="M14.667 31.5H21.333C26.0145 31.5 28.356 31.5 30.0375 30.3975C30.763 29.922 31.3879 29.3083 31.8765 28.5915C33 26.9415 33 24.642 33 20.046C33 15.4485 33 13.1505 31.8765 11.5005C31.3879 10.7837 30.7631 10.17 30.0375 9.69451C28.9575 8.98501 27.6045 8.73151 25.533 8.64151C24.5445 8.64151 23.694 7.90651 23.5005 6.95401C23.3526 6.25631 22.9684 5.63106 22.4128 5.18394C21.8571 4.73681 21.1642 4.49522 20.451 4.50001H15.549C14.067 4.50001 12.7905 5.52751 12.4995 6.95401C12.306 7.90651 11.4555 8.64151 10.467 8.64151C8.397 8.73151 7.044 8.98651 5.9625 9.69451C5.23743 10.1701 4.61306 10.7838 4.125 11.5005C3 13.1505 3 15.4485 3 20.046C3 24.642 3 26.94 4.1235 28.5915C4.6095 29.3055 5.2335 29.919 5.9625 30.3975C7.644 31.5 9.9855 31.5 14.667 31.5ZM18 13.9095C14.5485 13.9095 11.7495 16.656 11.7495 20.0445C11.7495 23.4345 14.5485 26.1825 18 26.1825C21.4515 26.1825 24.2505 23.4345 24.2505 20.046C24.2505 16.656 21.4515 13.9095 18 13.9095ZM18 16.3635C15.93 16.3635 14.25 18.012 14.25 20.046C14.25 22.0785 15.93 23.727 18 23.727C20.07 23.727 21.75 22.0785 21.75 20.046C21.75 18.012 20.07 16.3635 18 16.3635ZM25.083 15.1365C25.083 14.4585 25.6425 13.9095 26.334 13.9095H27.999C28.689 13.9095 29.25 14.4585 29.25 15.1365C29.2468 15.4649 29.1135 15.7785 28.8792 16.0086C28.6449 16.2387 28.3288 16.3663 28.0005 16.3635H26.334C26.1713 16.3651 26.0099 16.3346 25.8589 16.2738C25.708 16.213 25.5705 16.1231 25.4544 16.0091C25.3382 15.8952 25.2456 15.7595 25.1819 15.6098C25.1182 15.46 25.0846 15.2992 25.083 15.1365Z" fill="#6792C1"/>
</g>
</svg>
