<svg xmlns="http://www.w3.org/2000/svg" aria-hidden="true" overflow="hidden" style="position:absolute;width:0;height:0">
  <defs>
    <symbol id="live-meetings" viewBox="0 0 32 32">
      <path d="M2.799 25.286v-2.311c0-.651.169-1.212.506-1.68s.791-.844 1.36-1.124c1.218-.58 2.426-1.042 3.627-1.386s2.644-.517 4.332-.517c1.688 0 3.132.172 4.333.517s2.409.807 3.627 1.386c.57.28 1.023.655 1.36 1.124s.506 1.029.506 1.68v2.311H2.799zm22.459 0V22.91c0-.813-.165-1.581-.494-2.303s-.796-1.342-1.401-1.859c.689.14 1.353.335 1.992.584s1.271.53 1.895.841c.608.306 1.085.697 1.431 1.175s.518.998.518 1.563v2.376h-3.941zm-12.633-10.15c-1.158 0-2.149-.412-2.974-1.237s-1.237-1.816-1.237-2.974c0-1.158.412-2.149 1.237-2.974s1.816-1.237 2.974-1.237c1.158 0 2.149.412 2.974 1.237s1.237 1.816 1.237 2.974c0 1.158-.412 2.149-1.237 2.974s-1.816 1.237-2.974 1.237zm10.204-4.211c0 1.158-.412 2.149-1.237 2.974s-1.816 1.237-2.974 1.237c-.059 0-.135-.007-.227-.02s-.167-.028-.227-.044a6.53 6.53 0 0 0 1.479-4.149c0-.764-.134-1.495-.401-2.191s-.627-1.347-1.078-1.952c.076-.027.151-.045.227-.053s.151-.012.227-.012c1.158 0 2.149.412 2.974 1.237s1.237 1.816 1.237 2.974zM4.203 23.882h16.844v-.907c0-.329-.082-.617-.247-.864s-.46-.482-.887-.707c-1.047-.56-2.151-.988-3.312-1.286s-2.486-.447-3.976-.447c-1.49 0-2.815.149-3.976.447s-2.265.727-3.312 1.286c-.426.225-.722.461-.887.707s-.247.534-.247.864v.907zm8.422-10.15c.772 0 1.433-.275 1.983-.825s.825-1.211.825-1.983-.275-1.433-.825-1.983-1.211-.825-1.983-.825-1.433.275-1.983.825-.825 1.211-.825 1.983.275 1.433.825 1.983 1.211.825 1.983.825z"/>
    </symbol>
    <symbol id="exchange-of-books" viewBox="0 0 32 32">
      <path d="m16.1 25.354 3.423-3.416-3.425-3.416-.892.892 1.967 1.967c-1.102.005-2.08-.125-2.936-.388-.856-.266-1.543-.656-2.059-1.17-.528-.529-.926-1.129-1.193-1.801s-.401-1.342-.401-2.012a5.592 5.592 0 0 1 .524-2.355l-.963-.853a6.6 6.6 0 0 0-.818 3.2c0 .845.164 1.679.492 2.503s.813 1.56 1.455 2.209c.642.651 1.485 1.135 2.53 1.451s2.118.478 3.218.484l-1.816 1.816.893.892zm5.784-6.154c.275-.502.48-1.021.614-1.559s.203-1.085.203-1.641c0-.842-.163-1.679-.489-2.51s-.814-1.568-1.465-2.21c-.632-.651-1.474-1.134-2.524-1.448s-2.124-.469-3.218-.469l1.816-1.825-.892-.892-3.425 3.416 3.425 3.416.892-.892-1.976-1.974c1.096 0 2.076.133 2.941.4.864.267 1.554.66 2.069 1.178s.91 1.112 1.18 1.785a5.357 5.357 0 0 1 .275 3.226 5.267 5.267 0 0 1-.39 1.146l.963.853zm-5.88 9.6c-1.769 0-3.433-.336-4.992-1.007-1.558-.672-2.913-1.584-4.066-2.736s-2.066-2.505-2.738-4.062c-.672-1.557-1.008-3.22-1.008-4.991 0-1.769.336-3.433 1.007-4.992.672-1.558 1.584-2.913 2.736-4.066s2.505-2.066 4.062-2.738c1.557-.672 3.22-1.008 4.991-1.008 1.769 0 3.433.336 4.992 1.007 1.558.672 2.913 1.584 4.066 2.736s2.066 2.505 2.738 4.062c.672 1.557 1.008 3.22 1.008 4.991 0 1.769-.336 3.433-1.007 4.992-.672 1.558-1.584 2.913-2.736 4.066s-2.505 2.066-4.062 2.738c-1.557.672-3.22 1.008-4.991 1.008zM16 27.378c3.176 0 5.867-1.102 8.071-3.307s3.307-4.895 3.307-8.071-1.102-5.867-3.307-8.071C21.867 5.725 19.176 4.622 16 4.622s-5.867 1.102-8.071 3.307C5.725 10.133 4.622 12.824 4.622 16s1.102 5.867 3.307 8.071c2.204 2.204 4.895 3.307 8.071 3.307z"/>
    </symbol>
    <symbol id="biographies" viewBox="0 0 32 32">
      <path d="M16 23.18c-1.48 0-2.918.229-4.316.686s-2.706 1.16-3.926 2.109c.037.198.137.361.302.487s.348.195.55.205h14.753c.201-.01.385-.079.549-.205s.266-.289.302-.487c-1.183-.949-2.473-1.652-3.871-2.109S17.498 23.18 16 23.18zm0-1.334c1.643 0 3.179.233 4.607.7s2.75 1.122 3.964 1.967V6.154c0-.205-.092-.393-.275-.564s-.385-.256-.604-.256H8.307c-.22 0-.421.085-.604.256s-.275.359-.275.564v18.359c1.214-.844 2.536-1.5 3.964-1.967s2.964-.7 4.607-.7zm0-4.41c-.778 0-1.449-.263-2.012-.788s-.845-1.152-.845-1.878.282-1.353.845-1.878 1.234-.788 2.012-.788 1.449.263 2.012.788c.563.526.845 1.152.845 1.878s-.282 1.353-.845 1.878a2.846 2.846 0 0 1-2.012.788zM8.308 28c-.657 0-1.207-.206-1.647-.617S6 26.459 6 25.846V6.154c0-.614.22-1.126.661-1.537S7.65 4 8.308 4h15.385c.658 0 1.206.206 1.647.617s.661.923.661 1.537v19.692c0 .614-.22 1.126-.661 1.537s-.989.617-1.647.617H8.308zM16 18.769c1.198 0 2.212-.387 3.041-1.162s1.244-1.72 1.244-2.838-.415-2.064-1.244-2.838-1.843-1.162-3.041-1.162-2.212.387-3.041 1.162c-.83.774-1.244 1.72-1.244 2.838s.415 2.064 1.244 2.838c.83.774 1.843 1.162 3.041 1.162z"/>
    </symbol>
    <symbol id="novelties" viewBox="0 0 32 32">
      <path d="M7.487 26.667c-.597 0-1.105-.21-1.524-.629s-.629-.928-.629-1.524V7.488c0-.597.21-1.105.629-1.524s.928-.629 1.524-.629h17.026c.597 0 1.105.21 1.524.629s.63.928.63 1.524v7.933c-.234-.08-.458-.146-.672-.196s-.434-.1-.662-.15V7.488c0-.205-.085-.393-.256-.564s-.359-.256-.564-.256H7.487c-.205 0-.393.085-.564.256s-.256.359-.256.564v17.026c0 .205.085.393.256.564s.359.256.564.256h7.554c.032.25.074.481.124.695s.116.427.196.638H7.487zM6.667 24zM10 21.692h5.28a4.4 4.4 0 0 1 .201-.662l.265-.672H10v1.333zm0-5.025h8.774c.438-.308.869-.568 1.294-.782s.881-.381 1.368-.503v-.049H10v1.333zm0-5.026h12v-1.333H10v1.333zm14 17.846c-1.485 0-2.746-.518-3.781-1.553s-1.553-2.295-1.553-3.781c0-1.486.518-2.746 1.553-3.781s2.295-1.553 3.781-1.553c1.486 0 2.746.518 3.781 1.553s1.553 2.295 1.553 3.781c0 1.485-.518 2.746-1.553 3.781S25.486 29.487 24 29.487zM23.487 28h1.026v-3.333h3.333v-1.026h-3.333v-3.333h-1.026v3.333h-3.333v1.026h3.333V28z"/>
    </symbol>
    <symbol id="children's-literature" viewBox="0 0 32 32">
      <path d="m10.49 9.066 3.708-4.933c.226-.304.494-.528.805-.671s.643-.213.997-.213.686.071.997.213.579.365.805.67l3.708 4.935 5.715 1.945c.506.171.896.458 1.169.862a2.333 2.333 0 0 1 .311 2.005 2.08 2.08 0 0 1-.324.638l-3.746 5.08.142 5.445c.024.669-.197 1.233-.663 1.69s-1.008.687-1.626.687l-.644-.08-5.843-1.722-5.843 1.722a.996.996 0 0 1-.341.075c-.111.003-.212.004-.303.004-.631 0-1.176-.229-1.635-.687s-.678-1.021-.654-1.689l.142-5.482-3.738-5.044c-.151-.206-.259-.42-.324-.644s-.1-.447-.1-.671c0-.48.141-.926.422-1.339s.673-.705 1.177-.879l5.687-1.917zm.895 1.223-6.102 2.056c-.274.091-.461.278-.562.56s-.058.542.124.779l3.97 5.46-.171 5.914c-.017.31.093.556.33.739s.501.228.792.136L16 24.142l6.234 1.827a.828.828 0 0 0 .792-.136.819.819 0 0 0 .328-.739l-.171-5.949 3.971-5.388c.182-.237.223-.497.124-.781s-.288-.469-.562-.56l-6.102-2.127-3.931-5.236c-.164-.237-.392-.355-.684-.355s-.519.118-.682.355l-3.933 5.236z"/>
    </symbol>
    <symbol id="non-fiction" viewBox="0 0 32 32">
      <path d="M6.667 26.667c-.568 0-.972-.253-1.211-.76s-.183-.98.169-1.42l7.708-9.359V6.667h-1.847c-.188 0-.347-.064-.475-.192s-.192-.287-.192-.476c0-.188.064-.347.192-.475s.286-.191.475-.191h9.027c.188 0 .347.064.475.192s.192.287.192.476c0 .188-.064.347-.192.475s-.286.191-.475.191h-1.847v8.461l7.707 9.36c.353.439.41.912.171 1.419s-.644.76-1.211.76H6.666zm0-1.334h18.667l-8-9.733V6.667h-2.667V15.6l-8 9.733z"/>
    </symbol>
    <symbol id="world-literature" viewBox="0 0 32 32">
      <path d="M16 28.8c-1.761 0-3.421-.337-4.978-1.011s-2.913-1.588-4.068-2.743-2.07-2.511-2.743-4.068A12.394 12.394 0 0 1 3.2 16c0-1.767.337-3.427 1.011-4.982s1.588-2.909 2.743-4.064 2.511-2.07 4.068-2.743A12.394 12.394 0 0 1 16 3.2c1.767 0 3.427.337 4.982 1.011s2.909 1.588 4.064 2.743 2.07 2.51 2.743 4.064C28.463 12.572 28.8 14.233 28.8 16c0 1.761-.337 3.421-1.011 4.978s-1.588 2.913-2.743 4.068-2.51 2.07-4.064 2.743C19.428 28.463 17.767 28.8 16 28.8zm0-1.411c.835-1.072 1.523-2.125 2.065-3.159s.982-2.191 1.321-3.471h-6.772c.376 1.353.825 2.546 1.348 3.58s1.202 2.05 2.038 3.05zm-1.811-.214c-.664-.782-1.27-1.749-1.818-2.9s-.956-2.323-1.224-3.516H5.693c.815 1.769 1.971 3.219 3.467 4.351s3.172 1.821 5.028 2.065zm3.622 0c1.856-.244 3.532-.933 5.028-2.065s2.652-2.583 3.467-4.351h-5.454c-.359 1.211-.813 2.392-1.361 3.543s-1.108 2.109-1.681 2.873zM5.115 19.337h5.738c-.108-.583-.184-1.152-.228-1.705s-.067-1.097-.067-1.631.022-1.078.067-1.631c.045-.553.121-1.122.228-1.705H5.115c-.155.492-.276 1.029-.362 1.61s-.13 1.156-.13 1.727a11.64 11.64 0 0 0 .492 3.337zm7.16 0h7.45c.108-.583.184-1.143.228-1.678a20.237 20.237 0 0 0 0-3.318 17.43 17.43 0 0 0-.228-1.678h-7.45a16.784 16.784 0 0 0-.228 1.678 20.237 20.237 0 0 0 0 3.318c.045.535.121 1.094.228 1.678zm8.872 0h5.738c.155-.492.276-1.029.362-1.61s.13-1.156.13-1.727a11.64 11.64 0 0 0-.492-3.337h-5.738c.108.583.184 1.152.228 1.705s.067 1.097.067 1.631-.022 1.078-.067 1.631a17.167 17.167 0 0 1-.228 1.705zm-.295-8.096h5.454c-.833-1.805-1.975-3.256-3.426-4.351s-3.14-1.793-5.069-2.092c.664.873 1.26 1.872 1.79 2.996s.947 2.273 1.251 3.448zm-8.238 0h6.772c-.376-1.335-.839-2.542-1.389-3.621S16.781 5.538 16 4.611c-.78.926-1.446 1.929-1.997 3.009s-1.014 2.286-1.389 3.621zm-6.92 0h5.454c.304-1.174.722-2.323 1.251-3.448s1.126-2.123 1.79-2.996c-1.947.299-3.642 1.001-5.083 2.106s-2.579 2.551-3.412 4.338z"/>
    </symbol>
    <symbol id="modern-literature" viewBox="0 0 32 32">
      <path d="M4.82 26.667c-.614 0-1.126-.206-1.537-.617s-.617-.924-.617-1.537V8.821c0-.614.206-1.126.617-1.537s.923-.617 1.537-.617h22.359c.614 0 1.126.206 1.537.617s.617.923.617 1.537v15.692c0 .614-.206 1.126-.617 1.537s-.924.617-1.537.617H4.82zm0-1.334h22.359c.205 0 .393-.086.564-.256s.256-.359.256-.564V8.821c0-.205-.086-.393-.256-.564s-.359-.256-.564-.256H4.82c-.205 0-.393.085-.564.256S4 8.616 4 8.821v15.692c0 .205.085.393.256.564s.359.256.564.256zm6-2.82h10.359v-1.026H10.82v1.026zm-3.846-4.154h2.051v-2.051H6.974v2.051zm5.333 0h2.051v-2.051h-2.051v2.051zm5.334 0h2.051v-2.051h-2.051v2.051zm5.333 0h2.051v-2.051h-2.051v2.051zm-16-5.333h2.051v-2.051H6.974v2.051zm5.333 0h2.051v-2.051h-2.051v2.051zm5.334 0h2.051v-2.051h-2.051v2.051zm5.333 0h2.051v-2.051h-2.051v2.051z"/>
    </symbol>
    <symbol id="ukrainian-classics" viewBox="0 0 32 32">
      <path d="M8.843 26.297c-.418 0-.775-.149-1.073-.446s-.446-.655-.446-1.073V21.74h4.207v-4.937c-.964.203-1.952.172-2.964-.092s-1.847-.728-2.505-1.392v-2.138H3.906L-.33 8.945c.873-.795 1.863-1.389 2.971-1.782s2.248-.59 3.421-.59c.973 0 1.92.138 2.839.415s1.796.71 2.63 1.3v-2.79h15.191V23.26c0 .857-.292 1.578-.876 2.162s-1.305.876-2.162.876H8.844zm4.206-4.557h9.115v1.519c0 .43.146.791.437 1.082s.652.437 1.082.437c.43 0 .791-.146 1.082-.437s.437-.652.437-1.082V7.016H13.049v2.431l8.355 8.355v1.075h-1.075l-4.622-4.622-.859.859c-.296.296-.587.544-.872.745s-.594.377-.928.529v5.352zM4.554 11.661H7.58v2.974c.518.319 1 .536 1.446.651s.879.172 1.3.172c.691 0 1.32-.118 1.886-.353s1.096-.601 1.591-1.096l.83-.83-2.653-2.653c-.812-.812-1.723-1.421-2.732-1.827S7.177 8.09 6.061 8.09c-.74 0-1.46.096-2.159.289s-1.325.443-1.878.751l2.53 2.53zm16.091 11.598H8.843v1.519h12.264c-.173-.208-.294-.442-.361-.702s-.101-.532-.101-.817z"/>
    </symbol>
    <symbol id="personal-messages" viewBox="0 0 32 32">
      <path d="M4.697 24.131c-.655 0-1.201-.206-1.64-.617s-.658-.924-.658-1.537V7.618c0-.614.219-1.126.658-1.537s.985-.617 1.64-.617h21.005c.655 0 1.201.206 1.64.617S28 7.004 28 7.618v14.359c0 .614-.219 1.126-.658 1.537s-.985.617-1.64.617H4.697zm10.503-9.18L3.822 7.977v14c0 .239.082.436.246.59s.374.231.629.231h21.005c.255 0 .465-.077.629-.231s.246-.35.246-.59v-14l-11.378 6.974zm0-1.487 10.94-6.667H4.26l10.94 6.667zM3.822 7.977V6.798v15.179c0 .239.082.436.246.59s.374.231.629.231h-.875V7.977z"/>
    </symbol>
  </defs>
</svg>
