<svg width="40" height="40" viewBox="0 0 40 40" fill="none" xmlns="http://www.w3.org/2000/svg">
<g id="material-symbols-light:kid-star-outline">
<path id="Vector" d="M13.113 11.3328L17.7479 5.16599C18.0298 4.78567 18.3651 4.50606 18.7537 4.32716C19.1424 4.14944 19.5576 4.06058 19.9996 4.06058C20.4415 4.06058 20.8567 4.14944 21.2454 4.32716C21.634 4.50487 21.9693 4.78389 22.2512 5.16421L26.8861 11.3328L34.0304 13.764C34.6631 13.9773 35.1501 14.3363 35.4913 14.841C35.8337 15.3445 36.0049 15.9008 36.0049 16.5098C36.0049 16.7906 35.9634 17.0696 35.8805 17.3468C35.7975 17.6241 35.6625 17.89 35.4753 18.1448L30.7924 24.4947L30.9701 31.3013C30.9997 32.1377 30.7237 32.8421 30.1419 33.4144C29.559 33.9866 28.8813 34.2727 28.1088 34.2727L27.3038 34.1732L19.9996 32.021L12.6953 34.1732C12.5472 34.2324 12.405 34.2638 12.2688 34.2674C12.1302 34.271 12.004 34.2727 11.8903 34.2727C11.1012 34.2727 10.4199 33.9866 9.84649 33.4144C9.27187 32.8421 8.99937 32.1383 9.02899 31.3031L9.2067 24.4502L4.53448 18.1448C4.3461 17.8877 4.21104 17.6193 4.12929 17.3397C4.04635 17.0601 4.00488 16.7805 4.00488 16.5009C4.00488 15.9014 4.18082 15.3433 4.53271 14.8268C4.8834 14.3114 5.37391 13.9453 6.00422 13.7285L13.113 11.3328ZM14.2308 12.8612L6.60313 15.431C6.26072 15.5447 6.02673 15.7782 5.90114 16.1312C5.77674 16.4843 5.82827 16.8089 6.05575 17.1051L11.0177 23.9295L10.8044 31.3226C10.7831 31.71 10.9205 32.0181 11.2167 32.2467C11.5129 32.4742 11.8429 32.5311 12.2066 32.4173L19.9996 30.1781L27.7925 32.4618C28.1562 32.5755 28.4862 32.5186 28.7824 32.2912C29.0786 32.0625 29.2154 31.7545 29.1929 31.367L28.9797 23.9313L33.9433 17.1958C34.1708 16.8996 34.2224 16.5743 34.098 16.2201C33.9724 15.867 33.7384 15.6336 33.396 15.5199L25.7683 12.8612L20.8544 6.31583C20.6494 6.01963 20.3645 5.87153 19.9996 5.87153C19.6346 5.87153 19.3503 6.01963 19.1465 6.31583L14.2308 12.8612Z" fill="#6792C1"/>
</g>
</svg>
