<svg width="36" height="36" viewBox="0 0 36 36" fill="none" xmlns="http://www.w3.org/2000/svg">
<g id="9293099951595156175 (1) 1">
<g id="Group">
<path id="Vector" d="M34.875 29.25C34.2 29.25 33.75 28.8 33.75 28.125V13.5C33.75 12.825 34.2 12.375 34.875 12.375C35.55 12.375 36 12.825 36 13.5V28.125C36 28.8 35.55 29.25 34.875 29.25Z" fill="#FEFEFE"/>
</g>
<g id="Group_2">
<path id="Vector_2" d="M18 23.625C17.775 23.625 17.6625 23.625 17.4375 23.5125L0.5625 14.5125C0.225 14.2875 0 13.95 0 13.5C0 13.05 0.225 12.7125 0.5625 12.4875L17.4375 3.48751C17.775 3.26251 18.1125 3.26251 18.45 3.48751L35.325 12.4875C35.6625 12.7125 35.8875 13.05 35.8875 13.5C35.8875 13.95 35.6625 14.2875 35.325 14.5125L18.45 23.5125C18.3375 23.625 18.225 23.625 18 23.625Z" fill="#FEFEFE"/>
</g>
<path id="Vector_3" d="M19.575 25.425C19.125 25.7625 18.5625 25.875 18 25.875C17.4375 25.875 16.875 25.7625 16.425 25.425L6.75 20.3625V24.75C6.75 28.2375 12.2625 31.5 18 31.5C23.7375 31.5 29.25 28.2375 29.25 24.75V20.3625L19.575 25.425Z" fill="#FEFEFE"/>
</g>
</svg>
