<svg width="40" height="40" viewBox="0 0 40 40" fill="none" xmlns="http://www.w3.org/2000/svg">
<g id="material-symbols-light:change-circle-outline">
<path id="Vector" d="M20.1244 31.6924L24.4036 27.4222L20.1227 23.152L19.008 24.2667L21.4667 26.7253C20.0895 26.7313 18.8664 26.5695 17.7973 26.24C16.7271 25.9081 15.869 25.4204 15.2231 24.7769C14.563 24.1156 14.0658 23.3653 13.7316 22.5262C13.3973 21.6871 13.2302 20.8486 13.2302 20.0107C13.2302 19.507 13.2859 19.0033 13.3973 18.4996C13.5087 17.9959 13.6711 17.5182 13.8844 17.0667L12.6809 16C12.3372 16.627 12.0806 17.2764 11.9111 17.9484C11.7428 18.6204 11.6587 19.3043 11.6587 20C11.6587 21.056 11.8637 22.099 12.2738 23.1289C12.6839 24.1588 13.2901 25.0791 14.0924 25.8898C14.8948 26.704 15.949 27.3084 17.2551 27.7031C18.5612 28.099 19.9022 28.3004 21.2782 28.3076L19.008 30.5778L20.1244 31.6924ZM27.3547 24C27.6984 23.373 27.9544 22.7236 28.1227 22.0516C28.2921 21.3796 28.3769 20.6957 28.3769 20C28.3769 18.9476 28.173 17.9016 27.7653 16.8622C27.3576 15.8228 26.7473 14.9019 25.9342 14.0996C25.1437 13.2853 24.0919 12.6821 22.7787 12.2898C21.4643 11.8987 20.1233 11.7031 18.7556 11.7031L21.0258 9.42222L19.9111 8.30756L15.6302 12.5778L19.9111 16.848L21.0258 15.7333L18.5564 13.2658C19.9265 13.2658 21.152 13.4323 22.2329 13.7653C23.3126 14.0996 24.1748 14.5902 24.8196 15.2373C25.4655 15.8833 25.9573 16.627 26.2951 17.4684C26.6341 18.3087 26.8036 19.149 26.8036 19.9893C26.8036 20.493 26.7484 20.9967 26.6382 21.5004C26.528 22.0041 26.3656 22.4818 26.1511 22.9333L27.3547 24ZM20.0053 36C17.7938 36 15.7138 35.5804 13.7653 34.7413C11.8181 33.901 10.1239 32.7609 8.68267 31.3209C7.24148 29.8821 6.10074 28.1896 5.26044 26.2436C4.42015 24.2975 4 22.2181 4 20.0053C4 17.7938 4.41956 15.7138 5.25867 13.7653C6.09896 11.8181 7.23911 10.1239 8.67911 8.68267C10.1179 7.24148 11.8104 6.10074 13.7564 5.26044C15.7025 4.42015 17.7819 4 19.9947 4C22.2062 4 24.2862 4.41956 26.2347 5.25867C28.1819 6.09896 29.8761 7.23911 31.3173 8.67911C32.7585 10.1179 33.8993 11.8104 34.7396 13.7564C35.5799 15.7025 36 17.7819 36 19.9947C36 22.2062 35.5804 24.2862 34.7413 26.2347C33.901 28.1819 32.7609 29.8761 31.3209 31.3173C29.8821 32.7585 28.1896 33.8993 26.2436 34.7396C24.2975 35.5799 22.2181 36 20.0053 36ZM20 34.2222C23.9704 34.2222 27.3333 32.8444 30.0889 30.0889C32.8444 27.3333 34.2222 23.9704 34.2222 20C34.2222 16.0296 32.8444 12.6667 30.0889 9.91111C27.3333 7.15556 23.9704 5.77778 20 5.77778C16.0296 5.77778 12.6667 7.15556 9.91111 9.91111C7.15556 12.6667 5.77778 16.0296 5.77778 20C5.77778 23.9704 7.15556 27.3333 9.91111 30.0889C12.6667 32.8444 16.0296 34.2222 20 34.2222Z" fill="#6792C1"/>
</g>
</svg>
