<svg width="32" height="32" viewBox="0 0 32 32" fill="none" xmlns="http://www.w3.org/2000/svg">
<g id="ooui:image-gallery">
<path id="Vector" d="M4.8001 8.00001C3.9514 8.00001 3.13747 8.33715 2.53736 8.93727C1.93724 9.53739 1.6001 10.3513 1.6001 11.2V27.2C1.6001 28.0487 1.93724 28.8626 2.53736 29.4628C3.13747 30.0629 3.9514 30.4 4.8001 30.4H27.2001C28.0488 30.4 28.8627 30.0629 29.4628 29.4628C30.063 28.8626 30.4001 28.0487 30.4001 27.2V11.2C30.4001 10.3513 30.063 9.53739 29.4628 8.93727C28.8627 8.33715 28.0488 8.00001 27.2001 8.00001H4.8001ZM4.8001 25.6L10.4001 18.4L14.4001 23.2L20.0001 16L27.2001 25.6H4.8001ZM25.6001 3.20001C26.4488 3.20001 27.2627 3.53715 27.8628 4.13727C28.463 4.73739 28.8001 5.55132 28.8001 6.40001H3.2001C3.2001 5.55132 3.53724 4.73739 4.13736 4.13727C4.73747 3.53715 5.5514 3.20001 6.4001 3.20001H25.6001Z" fill="#6792C1"/>
</g>
</svg>
