<svg width="40" height="40" viewBox="0 0 40 40" fill="none" xmlns="http://www.w3.org/2000/svg">
<g id="group_FILL0_wght200_GRAD0_opsz24 1">
<path id="Vector" d="M3.49902 31.6072V28.7188C3.49902 27.9045 3.70991 27.2043 4.13169 26.6184C4.55347 26.0324 5.12027 25.564 5.83212 25.2134C7.35403 24.4888 8.86518 23.9111 10.3656 23.4803C11.866 23.0495 13.6712 22.8341 15.7812 22.8341C17.8913 22.8341 19.6965 23.0495 21.1969 23.4803C22.6973 23.9111 24.2084 24.4888 25.7303 25.2134C26.4422 25.564 27.009 26.0324 27.4308 26.6184C27.8525 27.2043 28.0634 27.9045 28.0634 28.7188V31.6072H3.49902ZM31.5726 31.6072V28.6378C31.5726 27.6211 31.3668 26.6613 30.9553 25.7585C30.5437 24.8557 29.9599 24.0812 29.2039 23.4347C30.0655 23.6102 30.8955 23.8537 31.6941 24.1653C32.4927 24.4768 33.2823 24.8272 34.0629 25.2163C34.8232 25.5988 35.4193 26.0881 35.8512 26.6845C36.2831 27.2808 36.499 27.9319 36.499 28.6378V31.6072H31.5726ZM15.7812 18.9201C14.3337 18.9201 13.0945 18.4046 12.0637 17.3738C11.0328 16.343 10.5174 15.1038 10.5174 13.6563C10.5174 12.2087 11.0328 10.9695 12.0637 9.93864C13.0945 8.90782 14.3337 8.3924 15.7812 8.3924C17.2288 8.3924 18.468 8.90782 19.4988 9.93864C20.5296 10.9695 21.045 12.2087 21.045 13.6563C21.045 15.1038 20.5296 16.343 19.4988 17.3738C18.468 18.4046 17.2288 18.9201 15.7812 18.9201ZM28.5359 13.6563C28.5359 15.1038 28.0204 16.343 26.9896 17.3738C25.9588 18.4046 24.7196 18.9201 23.2721 18.9201C23.1978 18.9201 23.1033 18.9116 22.9886 18.8947C22.8739 18.8779 22.7794 18.8593 22.7051 18.8391C23.2995 18.1111 23.7563 17.3034 24.0754 16.4162C24.3946 15.529 24.5542 14.6076 24.5542 13.652C24.5542 12.6965 24.3872 11.7835 24.0532 10.913C23.7191 10.0424 23.2698 9.22923 22.7051 8.47338C22.7996 8.43966 22.8941 8.41773 22.9886 8.40758C23.0831 8.39746 23.1776 8.3924 23.2721 8.3924C24.7196 8.3924 25.9588 8.90782 26.9896 9.93864C28.0204 10.9695 28.5359 12.2087 28.5359 13.6563ZM5.25362 29.8525H26.3088V28.7188C26.3088 28.3071 26.2059 27.9472 26.0001 27.6391C25.7943 27.3309 25.4248 27.0362 24.8916 26.755C23.5824 26.0554 22.2024 25.5195 20.7515 25.1472C19.3005 24.7749 17.6438 24.5887 15.7812 24.5887C13.9187 24.5887 12.2619 24.7749 10.811 25.1472C9.36006 25.5195 7.98001 26.0554 6.67082 26.755C6.13768 27.0362 5.76819 27.3309 5.56235 27.6391C5.35653 27.9472 5.25362 28.3071 5.25362 28.7188V29.8525ZM15.7812 17.1655C16.7463 17.1655 17.5724 16.8218 18.2596 16.1346C18.9468 15.4474 19.2904 14.6213 19.2904 13.6563C19.2904 12.6912 18.9468 11.8651 18.2596 11.1779C17.5724 10.4907 16.7463 10.147 15.7812 10.147C14.8162 10.147 13.9901 10.4907 13.3029 11.1779C12.6156 11.8651 12.272 12.6912 12.272 13.6563C12.272 14.6213 12.6156 15.4474 13.3029 16.1346C13.9901 16.8218 14.8162 17.1655 15.7812 17.1655Z" fill="#84BF4E"/>
</g>
</svg>
