<svg width="40" height="40" viewBox="0 0 40 40" fill="none" xmlns="http://www.w3.org/2000/svg">
<g id="keyboard_alt_FILL0_wght200_GRAD0_opsz24 1">
<path id="Vector" d="M6.0253 33.3333C5.25822 33.3333 4.61773 33.0764 4.10384 32.5625C3.58995 32.0486 3.33301 31.4081 3.33301 30.641V11.0256C3.33301 10.2585 3.58995 9.61806 4.10384 9.10417C4.61773 8.59028 5.25822 8.33334 6.0253 8.33334H33.974C34.7411 8.33334 35.3816 8.59028 35.8955 9.10417C36.4094 9.61806 36.6663 10.2585 36.6663 11.0256V30.641C36.6663 31.4081 36.4094 32.0486 35.8955 32.5625C35.3816 33.0764 34.7411 33.3333 33.974 33.3333H6.0253ZM6.0253 31.6667H33.974C34.2304 31.6667 34.4655 31.5598 34.6792 31.3462C34.8928 31.1325 34.9997 30.8974 34.9997 30.641V11.0256C34.9997 10.7692 34.8928 10.5342 34.6792 10.3205C34.4655 10.1068 34.2304 10 33.974 10H6.0253C5.76891 10 5.53387 10.1068 5.32017 10.3205C5.10651 10.5342 4.99967 10.7692 4.99967 11.0256V30.641C4.99967 30.8974 5.10651 31.1325 5.32017 31.3462C5.53387 31.5598 5.76891 31.6667 6.0253 31.6667ZM13.5253 28.141H26.474V26.859H13.5253V28.141ZM8.71763 22.9487H11.2817V20.3846H8.71763V22.9487ZM15.3843 22.9487H17.9484V20.3846H15.3843V22.9487ZM22.051 22.9487H24.615V20.3846H22.051V22.9487ZM28.7176 22.9487H31.2817V20.3846H28.7176V22.9487ZM8.71763 16.282H11.2817V13.718H8.71763V16.282ZM15.3843 16.282H17.9484V13.718H15.3843V16.282ZM22.051 16.282H24.615V13.718H22.051V16.282ZM28.7176 16.282H31.2817V13.718H28.7176V16.282Z" fill="#6792C1"/>
</g>
</svg>
