<svg width="40" height="40" viewBox="0 0 40 40" fill="none" xmlns="http://www.w3.org/2000/svg">
<g id="material-symbols-light:science-outline">
<path id="Vector" d="M8.33336 33.3333C7.62336 33.3333 7.11892 33.0167 6.82003 32.3833C6.52114 31.75 6.59169 31.1583 7.03169 30.6083L16.6667 18.91V8.33332H14.3584C14.1228 8.33332 13.925 8.25332 13.765 8.09332C13.605 7.93332 13.525 7.73499 13.525 7.49832C13.525 7.26277 13.605 7.06499 13.765 6.90499C13.925 6.7461 14.1228 6.66666 14.3584 6.66666H25.6417C25.8772 6.66666 26.075 6.74666 26.235 6.90666C26.395 7.06666 26.475 7.26499 26.475 7.50166C26.475 7.73721 26.395 7.93499 26.235 8.09499C26.075 8.25388 25.8772 8.33332 25.6417 8.33332H23.3334V18.91L32.9667 30.61C33.4078 31.1589 33.4789 31.75 33.18 32.3833C32.88 33.0167 32.3756 33.3333 31.6667 33.3333H8.33336ZM8.33336 31.6667H31.6667L21.6667 19.5V8.33332H18.3334V19.5L8.33336 31.6667Z" fill="#6792C1"/>
</g>
</svg>
