<svg width="40" height="40" viewBox="0 0 40 40" fill="none" xmlns="http://www.w3.org/2000/svg">
<g id="add_notes_FILL0_wght200_GRAD0_opsz24 1">
<path id="Vector" d="M9.35928 33.3334C8.61356 33.3334 7.97841 33.0711 7.45383 32.5466C6.92927 32.022 6.66699 31.3868 6.66699 30.6411V9.35904C6.66699 8.61332 6.92927 7.97816 7.45383 7.45358C7.97841 6.92902 8.61356 6.66675 9.35928 6.66675H30.6414C31.3871 6.66675 32.0222 6.92902 32.5468 7.45358C33.0714 7.97816 33.3337 8.61332 33.3337 9.35904V19.2757C33.0409 19.1753 32.761 19.0936 32.4939 19.0305C32.2268 18.9675 31.9512 18.905 31.667 18.843V9.35904C31.667 9.10265 31.5602 8.86761 31.3465 8.65392C31.1328 8.44025 30.8978 8.33341 30.6414 8.33341H9.35928C9.1029 8.33341 8.86785 8.44025 8.65416 8.65392C8.44049 8.86761 8.33366 9.10265 8.33366 9.35904V30.6411C8.33366 30.8975 8.44049 31.1326 8.65416 31.3462C8.86785 31.5599 9.1029 31.6667 9.35928 31.6667H18.8016C18.8422 31.9787 18.894 32.2682 18.9571 32.5353C19.0201 32.8024 19.1018 33.0685 19.2022 33.3334H9.35928ZM8.33366 30.0001V31.6667V8.33341V18.843V18.718V30.0001ZM12.5003 27.1155H19.0997C19.1616 26.8313 19.2455 26.5557 19.3513 26.2885C19.4571 26.0215 19.5676 25.7415 19.683 25.4488H12.5003V27.1155ZM12.5003 20.8334H23.4683C24.0153 20.4488 24.5543 20.1229 25.0852 19.8558C25.6162 19.5887 26.1862 19.3793 26.7952 19.2276V19.1667H12.5003V20.8334ZM12.5003 14.5514H27.5003V12.8847H12.5003V14.5514ZM30.0003 36.8591C28.1435 36.8591 26.5682 36.2122 25.2744 34.9184C23.9806 33.6246 23.3337 32.0492 23.3337 30.1924C23.3337 28.3355 23.9806 26.7602 25.2744 25.4664C26.5682 24.1726 28.1435 23.5257 30.0003 23.5257C31.8572 23.5257 33.4325 24.1726 34.7263 25.4664C36.0201 26.7602 36.667 28.3355 36.667 30.1924C36.667 32.0492 36.0201 33.6246 34.7263 34.9184C33.4325 36.2122 31.8572 36.8591 30.0003 36.8591ZM29.3593 35.0001H30.6414V30.8334H34.808V29.5514H30.6414V25.3847H29.3593V29.5514H25.1926V30.8334H29.3593V35.0001Z" fill="#6792C1"/>
</g>
</svg>
