<svg width="40" height="40" viewBox="0 0 40 40" fill="none" xmlns="http://www.w3.org/2000/svg">
<g id="material-symbols-light:chat-outline">
<path id="Vector" d="M5.87178 30.1633C5.05356 30.1633 4.37037 29.9064 3.82222 29.3925C3.27407 28.8786 3 28.2381 3 27.471V9.52229C3 8.75521 3.27407 8.11472 3.82222 7.60084C4.37037 7.08695 5.05356 6.83 5.87178 6.83H32.1282C32.9464 6.83 33.6296 7.08695 34.1778 7.60084C34.7259 8.11472 35 8.75521 35 9.52229V27.471C35 28.2381 34.7259 28.8786 34.1778 29.3925C33.6296 29.9064 32.9464 30.1633 32.1282 30.1633H5.87178ZM19 18.689L4.77778 9.97104V27.471C4.77778 27.7702 4.88034 28.0159 5.08547 28.2082C5.29059 28.4005 5.5527 28.4967 5.87178 28.4967H32.1282C32.4473 28.4967 32.7094 28.4005 32.9145 28.2082C33.1197 28.0159 33.2222 27.7702 33.2222 27.471V9.97104L19 18.689ZM19 16.83L32.6752 8.49667H5.3248L19 16.83ZM4.77778 9.97104V8.49667V27.471C4.77778 27.7702 4.88034 28.0159 5.08547 28.2082C5.29059 28.4005 5.5527 28.4967 5.87178 28.4967H4.77778V9.97104Z" fill="#6792C1"/>
</g>
</svg>
