<svg width="20" height="21" viewBox="0 0 20 21" fill="none" xmlns="http://www.w3.org/2000/svg">
<g id="person_FILL1_wght200_GRAD0_opsz24 1">
<path id="Vector" d="M10.0003 9.98719C9.31283 9.98719 8.72428 9.7424 8.2347 9.25281C7.74512 8.76323 7.50033 8.17469 7.50033 7.48719C7.50033 6.79968 7.74512 6.21113 8.2347 5.72154C8.72428 5.23196 9.31283 4.98717 10.0003 4.98717C10.6878 4.98717 11.2764 5.23196 11.766 5.72154C12.2555 6.21113 12.5003 6.79968 12.5003 7.48719C12.5003 8.17469 12.2555 8.76323 11.766 9.25281C11.2764 9.7424 10.6878 9.98719 10.0003 9.98719ZM4.16699 16.0128V14.641C4.16699 14.297 4.26715 13.9752 4.46747 13.6755C4.66779 13.3758 4.93729 13.1432 5.27597 12.9776C6.06229 12.6004 6.84914 12.3176 7.63653 12.129C8.42394 11.9404 9.21187 11.8461 10.0003 11.8461C10.7888 11.8461 11.5767 11.9404 12.3641 12.129C13.1515 12.3176 13.9384 12.6004 14.7247 12.9776C15.0634 13.1432 15.3329 13.3758 15.5332 13.6755C15.7335 13.9752 15.8337 14.297 15.8337 14.641V16.0128H4.16699Z" fill="#939393"/>
</g>
</svg>
