<svg width="40" height="40" viewBox="0 0 40 40" fill="none" xmlns="http://www.w3.org/2000/svg">
<g id="history_edu_FILL0_wght200_GRAD0_opsz24 1" clip-path="url(#clip0_1300_5290)">
<path id="Vector" d="M11.0532 32.8717C10.531 32.8717 10.084 32.6858 9.71214 32.3139C9.34024 31.942 9.1543 31.495 9.1543 30.9728V27.1751H14.4128V21.0037C13.2077 21.2569 11.9728 21.2186 10.7081 20.8887C9.44342 20.5588 8.39965 19.9788 7.57681 19.1487V16.4757H4.88188L-0.413086 11.1807C0.677564 10.1874 1.91549 9.44492 3.30068 8.95317C4.68588 8.46139 6.11126 8.21551 7.57681 8.21551C8.79367 8.21551 9.97671 8.38835 11.1259 8.73404C12.2752 9.07973 13.3708 9.6214 14.4128 10.3591V6.87172H33.4015V29.0739C33.4015 30.1451 33.0363 31.0459 32.306 31.7762C31.5756 32.5066 30.6749 32.8717 29.6037 32.8717H11.0532ZM16.3116 27.1751H27.7049V29.0739C27.7049 29.6119 27.8868 30.0629 28.2508 30.4269C28.6147 30.7908 29.0657 30.9728 29.6037 30.9728C30.1418 30.9728 30.5927 30.7908 30.9567 30.4269C31.3206 30.0629 31.5026 29.6119 31.5026 29.0739V8.7706H16.3116V11.8088L26.7554 22.2526V23.5964H25.4116L19.6347 17.8194L18.5611 18.8931C18.191 19.2631 17.8277 19.5735 17.471 19.8242C17.1144 20.075 16.7279 20.2953 16.3116 20.4852V27.1751ZM5.69255 14.5767H9.47568V18.2942C10.1233 18.6934 10.7258 18.9648 11.2833 19.1085C11.8407 19.2521 12.3825 19.3239 12.9085 19.3239C13.7725 19.3239 14.5582 19.1766 15.2654 18.8821C15.9726 18.5875 16.6354 18.1311 17.2538 17.5127L18.2908 16.4757L14.9751 13.1599C13.9595 12.1448 12.8212 11.3834 11.5604 10.8758C10.2996 10.3682 8.97175 10.1144 7.57681 10.1144C6.65171 10.1144 5.75218 10.2349 4.87822 10.4759C4.00426 10.7169 3.2216 11.0297 2.53022 11.4144L5.69255 14.5767ZM25.806 29.0739H11.0532V30.9728H26.383C26.1663 30.7123 26.0159 30.4199 25.932 30.0956C25.848 29.7712 25.806 29.4307 25.806 29.0739Z" fill="#6792C1"/>
</g>
<defs>
<clipPath id="clip0_1300_5290">
<rect width="40" height="40" fill="white"/>
</clipPath>
</defs>
</svg>
