<svg width="40" height="40" viewBox="0 0 40 40" fill="none" xmlns="http://www.w3.org/2000/svg">
<g id="language_FILL0_wght200_GRAD0_opsz24 1">
<path id="Vector" d="M20 36C17.7983 36 15.7242 35.5789 13.7778 34.7368C11.8313 33.8946 10.1362 32.7516 8.69231 31.3077C7.24843 29.8638 6.10541 28.1687 5.26324 26.2222C4.42108 24.2758 4 22.2017 4 20C4 17.7914 4.42108 15.7157 5.26324 13.7727C6.10541 11.8296 7.24843 10.1362 8.69231 8.69231C10.1362 7.24843 11.8313 6.10541 13.7778 5.26324C15.7242 4.42108 17.7983 4 20 4C22.2086 4 24.2843 4.42108 26.2273 5.26324C28.1704 6.10541 29.8638 7.24843 31.3077 8.69231C32.7516 10.1362 33.8946 11.8296 34.7368 13.7727C35.5789 15.7157 36 17.7914 36 20C36 22.2017 35.5789 24.2758 34.7368 26.2222C33.8946 28.1687 32.7516 29.8638 31.3077 31.3077C29.8638 32.7516 28.1704 33.8946 26.2273 34.7368C24.2843 35.5789 22.2086 36 20 36ZM20 34.2359C21.0439 32.8957 21.9043 31.5795 22.5812 30.2872C23.2581 28.9949 23.8085 27.5487 24.2325 25.9487H15.7675C16.237 27.6399 16.7988 29.1316 17.453 30.424C18.1071 31.7163 18.9561 32.9869 20 34.2359ZM17.7368 33.9692C16.9071 32.9915 16.1499 31.7829 15.4649 30.3436C14.78 28.9043 14.2701 27.4393 13.935 25.9487H7.11796C8.13677 28.1596 9.58121 29.9727 11.4513 31.388C13.3214 32.8034 15.4165 33.6638 17.7368 33.9692ZM22.2632 33.9692C24.5835 33.6638 26.6786 32.8034 28.5487 31.388C30.4188 29.9727 31.8632 28.1596 32.882 25.9487H26.065C25.616 27.4621 25.049 28.9385 24.3641 30.3778C23.6792 31.8171 22.9789 33.0143 22.2632 33.9692ZM6.39316 24.1709H13.5658C13.4313 23.4416 13.3362 22.7311 13.2804 22.0393C13.2245 21.3476 13.1966 20.6678 13.1966 20C13.1966 19.3322 13.2245 18.6524 13.2804 17.9607C13.3362 17.2689 13.4313 16.5584 13.5658 15.8291H6.39316C6.19944 16.4444 6.04844 17.1151 5.94018 17.841C5.83191 18.5669 5.77778 19.2866 5.77778 20C5.77778 20.7134 5.83191 21.4331 5.94018 22.159C6.04844 22.8849 6.19944 23.5556 6.39316 24.1709ZM15.3436 24.1709H24.6564C24.7909 23.4416 24.886 22.7425 24.9419 22.0735C24.9977 21.4046 25.0256 20.7134 25.0256 20C25.0256 19.2866 24.9977 18.5954 24.9419 17.9265C24.886 17.2575 24.7909 16.5584 24.6564 15.8291H15.3436C15.2091 16.5584 15.114 17.2575 15.0581 17.9265C15.0023 18.5954 14.9744 19.2866 14.9744 20C14.9744 20.7134 15.0023 21.4046 15.0581 22.0735C15.114 22.7425 15.2091 23.4416 15.3436 24.1709ZM26.4342 24.1709H33.6068C33.8006 23.5556 33.9516 22.8849 34.0598 22.159C34.1681 21.4331 34.2222 20.7134 34.2222 20C34.2222 19.2866 34.1681 18.5669 34.0598 17.841C33.9516 17.1151 33.8006 16.4444 33.6068 15.8291H26.4342C26.5687 16.5584 26.6638 17.2689 26.7197 17.9607C26.7755 18.6524 26.8034 19.3322 26.8034 20C26.8034 20.6678 26.7755 21.3476 26.7197 22.0393C26.6638 22.7311 26.5687 23.4416 26.4342 24.1709ZM26.065 14.0513H32.882C31.8404 11.7949 30.4131 9.98176 28.6 8.61195C26.7869 7.24218 24.6747 6.37038 22.2632 5.99658C23.0929 7.08831 23.8387 8.33674 24.5008 9.74187C25.163 11.147 25.6844 12.5835 26.065 14.0513ZM15.7675 14.0513H24.2325C23.763 12.3829 23.1841 10.8741 22.4957 9.5248C21.8074 8.1755 20.9755 6.92193 20 5.76409C19.0245 6.92193 18.1926 8.1755 17.5043 9.5248C16.8159 10.8741 16.237 12.3829 15.7675 14.0513ZM7.11796 14.0513H13.935C14.3156 12.5835 14.837 11.147 15.4992 9.74187C16.1613 8.33674 16.9071 7.08831 17.7368 5.99658C15.3026 6.37038 13.1846 7.24788 11.3829 8.62907C9.5812 10.0103 8.15956 11.8177 7.11796 14.0513Z" fill="#6792C1"/>
</g>
</svg>
